<svg width="25" height="25" viewBox="0 0 25 25" fill="none" xmlns="http://www.w3.org/2000/svg">
<g clip-path="url(#clip0)">
<path d="M12.5 5.46875C11.9592 5.46875 11.4305 5.30838 10.9809 5.00793C10.5312 4.70747 10.1807 4.28042 9.97377 3.78078C9.76681 3.28113 9.71266 2.73134 9.81817 2.20093C9.92367 1.67051 10.1841 1.18329 10.5665 0.800881C10.9489 0.418472 11.4361 0.158048 11.9666 0.0525415C12.497 -0.052965 13.0468 0.00118478 13.5464 0.208143C14.046 0.415101 14.4731 0.765573 14.7736 1.21524C15.074 1.6649 15.2344 2.19357 15.2344 2.73438C15.2336 3.45934 14.9453 4.15439 14.4326 4.66701C13.92 5.17964 13.225 5.46798 12.5 5.46875Z" fill="#225DA9"/>
<path d="M21.0933 5.5078L21.0713 5.51366L21.0508 5.52001C21.002 5.53368 20.9531 5.54833 20.9043 5.56347C19.9956 5.83007 15.5855 7.07323 12.4785 7.07323C9.59131 7.07323 5.58008 5.99902 4.29688 5.63427C4.16917 5.58489 4.03875 5.54283 3.90625 5.50829C2.97852 5.26415 2.34375 6.20653 2.34375 7.06786C2.34375 7.92089 3.11035 8.32714 3.88428 8.61864V8.63232L8.53369 10.0845C9.00879 10.2666 9.13574 10.4526 9.19775 10.6138C9.39942 11.1309 9.23828 12.1548 9.18115 12.5122L8.89795 14.7095L7.32617 23.3125C7.32129 23.3359 7.3169 23.3599 7.31299 23.3843L7.30176 23.4463C7.18848 24.2349 7.76758 25 8.86426 25C9.82129 25 10.2437 24.3393 10.4268 23.4404C10.6099 22.5415 11.7939 15.7466 12.4775 15.7466C13.1611 15.7466 14.5693 23.4404 14.5693 23.4404C14.7524 24.3393 15.1748 25 16.1318 25C17.2314 25 17.8105 24.2314 17.6943 23.4404C17.6844 23.3739 17.672 23.3078 17.6572 23.2422L16.064 14.7104L15.7812 12.5132C15.5767 11.2334 15.7412 10.8105 15.7969 10.7114C15.7984 10.7091 15.7997 10.7066 15.8008 10.7041C15.8535 10.6064 16.0938 10.3877 16.6543 10.1772L21.0137 8.65331C21.0404 8.64618 21.0669 8.63771 21.0928 8.62792C21.874 8.33495 22.6553 7.92968 22.6553 7.06884C22.6553 6.208 22.021 5.26415 21.0933 5.5078Z" fill="#225DA9"/>
</g>
<defs>
<clipPath id="clip0">
<rect width="25" height="25" fill="white"/>
</clipPath>
</defs>
</svg>
