<svg width="25" height="25" viewBox="0 0 25 25" fill="none" xmlns="http://www.w3.org/2000/svg">
<path d="M14.4699 15.8649C12.8927 14.5564 10.9055 13.8446 8.85618 13.8541H8.83893C6.45043 13.86 4.2247 14.7898 2.58008 16.475C0.999481 18.1022 0.087168 20.293 0 22.693L14.313 22.664C13.003 20.5694 13.0645 17.8965 14.4699 15.8649Z" fill="#225DA9"/>
<path d="M19.5948 13.9761C16.61 13.9761 14.1904 16.3957 14.1904 19.3805C14.1904 22.3654 16.61 24.785 19.5948 24.785C22.5797 24.785 24.9993 22.3654 24.9993 19.3805C25.0113 17.9434 24.4458 16.5619 23.4296 15.5458C22.4135 14.5295 21.032 13.9641 19.5948 13.9761ZM21.9484 19.7873H20.0016V21.7341C20.0016 21.9588 19.8196 22.1409 19.5948 22.1409C19.3703 22.1409 19.1881 21.9588 19.1881 21.7341V19.7873H17.2413C17.0168 19.7873 16.8345 19.6053 16.8345 19.3805C16.8345 19.1558 17.0168 18.9737 17.2413 18.9737H19.1881V17.027C19.1881 16.8023 19.3703 16.6202 19.5948 16.6202C19.8196 16.6202 20.0016 16.8023 20.0016 17.027V18.9737H21.9484C22.1731 18.9737 22.3552 19.1558 22.3552 19.3805C22.3552 19.6053 22.1731 19.7873 21.9484 19.7873Z" fill="#225DA9"/>
<path d="M13.9994 5.34065C13.9994 8.18746 11.6917 10.4951 8.84492 10.4951C5.99811 10.4951 3.69043 8.18746 3.69043 5.34065C3.69043 2.49384 5.99811 0.186157 8.84492 0.186157C11.6917 0.186157 13.9994 2.49384 13.9994 5.34065Z" fill="#225DA9"/>
</svg>
