<svg width="55" height="55" viewBox="0 0 55 55" fill="none" xmlns="http://www.w3.org/2000/svg">
<path d="M27.5 5.15625C15.1798 5.15625 5.15625 15.1798 5.15625 27.5C5.15625 39.8202 15.1798 49.8438 27.5 49.8438C39.8202 49.8438 49.8438 39.8202 49.8438 27.5C49.8438 15.1798 39.8202 5.15625 27.5 5.15625ZM22.1053 17.7053C23.4663 16.2626 25.3816 15.4688 27.5 15.4688C29.6184 15.4688 31.5165 16.268 32.8829 17.7182C34.2676 19.1877 34.9411 21.1621 34.7821 23.2848C34.4642 27.5 31.1985 30.9375 27.5 30.9375C23.8015 30.9375 20.5294 27.5 20.2179 23.2837C20.06 21.1438 20.7324 19.163 22.1053 17.7053ZM27.5 46.4062C24.9761 46.4079 22.4775 45.9028 20.1525 44.9207C17.8275 43.9387 15.7233 42.4997 13.9648 40.6893C14.972 39.253 16.2552 38.0318 17.7396 37.0971C20.4778 35.3418 23.9433 34.375 27.5 34.375C31.0567 34.375 34.5222 35.3418 37.2571 37.0971C38.7428 38.0314 40.0272 39.2526 41.0352 40.6893C39.2768 42.4999 37.1727 43.939 34.8476 44.921C32.5226 45.9031 30.024 46.4082 27.5 46.4062Z" fill="#28A6DF"/>
</svg>
