<svg width="25" height="25" viewBox="0 0 25 25" fill="none" xmlns="http://www.w3.org/2000/svg">
<path d="M23.4375 24.2188H2.34375C1.92935 24.2188 1.53192 24.0541 1.2389 23.7611C0.94587 23.4681 0.78125 23.0707 0.78125 22.6562V1.5625C0.78125 1.3553 0.86356 1.15659 1.01007 1.01007C1.15659 0.86356 1.3553 0.78125 1.5625 0.78125C1.7697 0.78125 1.96841 0.86356 2.11493 1.01007C2.26144 1.15659 2.34375 1.3553 2.34375 1.5625V22.6562H23.4375C23.6447 22.6562 23.8434 22.7386 23.9899 22.8851C24.1364 23.0316 24.2188 23.2303 24.2188 23.4375C24.2188 23.6447 24.1364 23.8434 23.9899 23.9899C23.8434 24.1364 23.6447 24.2188 23.4375 24.2188Z" fill="#225DA9"/>
<path d="M7.61719 21.0938H5.66406C5.19786 21.0938 4.75076 20.9086 4.4211 20.5789C4.09145 20.2492 3.90625 19.8021 3.90625 19.3359V11.9141C3.90625 11.4479 4.09145 11.0008 4.4211 10.6711C4.75076 10.3414 5.19786 10.1562 5.66406 10.1562H7.61719C8.08339 10.1562 8.53049 10.3414 8.86015 10.6711C9.1898 11.0008 9.375 11.4479 9.375 11.9141V19.3359C9.375 19.8021 9.1898 20.2492 8.86015 20.5789C8.53049 20.9086 8.08339 21.0938 7.61719 21.0938ZM14.6484 21.0938H12.6953C12.2291 21.0938 11.782 20.9086 11.4524 20.5789C11.1227 20.2492 10.9375 19.8021 10.9375 19.3359V9.57031C10.9375 9.10411 11.1227 8.65701 11.4524 8.32735C11.782 7.9977 12.2291 7.8125 12.6953 7.8125H14.6484C15.1146 7.8125 15.5617 7.9977 15.8914 8.32735C16.2211 8.65701 16.4062 9.10411 16.4062 9.57031V19.3359C16.4062 19.8021 16.2211 20.2492 15.8914 20.5789C15.5617 20.9086 15.1146 21.0938 14.6484 21.0938ZM21.6621 21.0938H19.709C19.2428 21.0938 18.7957 20.9086 18.466 20.5789C18.1364 20.2492 17.9512 19.8021 17.9512 19.3359V6.44531C17.9512 5.97911 18.1364 5.53201 18.466 5.20235C18.7957 4.8727 19.2428 4.6875 19.709 4.6875H21.6621C22.1283 4.6875 22.5754 4.8727 22.9051 5.20235C23.2347 5.53201 23.4199 5.97911 23.4199 6.44531V19.3359C23.4199 19.8021 23.2347 20.2492 22.9051 20.5789C22.5754 20.9086 22.1283 21.0938 21.6621 21.0938Z" fill="#225DA9"/>
</svg>
