<svg width="26" height="18" viewBox="0 0 26 18" fill="none" xmlns="http://www.w3.org/2000/svg">
<path d="M21.586 7.57944C21.7506 7.16269 21.843 6.70698 21.843 6.23181C21.843 4.16752 20.1164 2.49272 17.9882 2.49272C17.1972 2.49272 16.4584 2.72642 15.8481 3.12369C14.7358 1.25415 12.6599 0 10.2788 0C6.72922 0 3.85424 2.78873 3.85424 6.23181C3.85424 6.33697 3.85825 6.44213 3.86227 6.54729C1.61368 7.31459 -0.000488281 9.39445 -0.000488281 11.8404C-0.000488281 14.9369 2.58941 17.4491 5.7816 17.4491H20.5581C23.3969 17.4491 25.6977 15.2173 25.6977 12.4636C25.6977 10.0527 23.9309 8.03903 21.586 7.57944ZM16.2496 11.0342L12.0174 15.1394C11.7685 15.3809 11.3589 15.3809 11.11 15.1394L6.87779 11.0342C6.47224 10.6408 6.76135 9.97089 7.33152 9.97089H9.95756V5.60863C9.95756 5.26588 10.2467 4.98545 10.6 4.98545H12.5274C12.8807 4.98545 13.1698 5.26588 13.1698 5.60863V9.97089H15.7959C16.366 9.97089 16.6551 10.6408 16.2496 11.0342Z" fill="#225DA9"/>
</svg>
