<svg width="66" height="33" viewBox="0 0 66 33" fill="none" xmlns="http://www.w3.org/2000/svg">
<path d="M33.609 1.83551V24.9671C33.6055 25.3333 33.7157 25.692 33.9253 25.9966C34.1348 26.3013 34.434 26.5377 34.7838 26.6752C35.1337 26.8127 35.5182 26.8449 35.8872 26.7677C36.2562 26.6904 36.5928 26.5073 36.8531 26.242L53.6514 9.95449C53.8597 9.76588 54.0215 9.53416 54.1248 9.27655C54.228 9.01894 54.2701 8.74206 54.2479 8.4665C54.2257 8.19093 54.1398 7.92377 53.9965 7.68486C53.8532 7.44594 53.6562 7.24143 53.4203 7.08651C48.4972 2.95836 42.3295 0.486106 35.8384 0.0391088C35.7275 0.0132669 35.6139 0.000140831 35.4998 0C35.2514 -6.08644e-08 35.0054 0.0474861 34.7759 0.139745C34.5464 0.232004 34.3379 0.367227 34.1623 0.537686C33.9867 0.708146 33.8475 0.910501 33.7525 1.13319C33.6576 1.35587 33.6088 1.59453 33.609 1.83551V1.83551Z" fill="#225DA9"/>
<path d="M0 31.1711C0.00319094 31.6558 0.203724 32.1196 0.5579 32.4614C0.912076 32.8033 1.39119 32.9955 1.89082 32.9962H28.3932C28.8942 32.9979 29.3755 32.8067 29.7313 32.4645C30.087 32.1223 30.2883 31.6571 30.2908 31.1711V5.45709C30.2897 4.9697 30.0893 4.50264 29.7335 4.15849C29.3777 3.81434 28.8957 3.62124 28.3932 3.62158C13.1417 4.53021 0.940707 16.3697 0 31.1711Z" fill="#225DA9"/>
<path d="M55.7853 13.5133L38.9238 29.8699C38.6536 30.1264 38.4694 30.4559 38.3951 30.8154C38.3208 31.175 38.3599 31.5479 38.5073 31.8856C38.6546 32.2233 38.9034 32.5101 39.2213 32.7086C39.5391 32.9071 39.9112 33.0082 40.2891 32.9986H64.0353C64.3205 33.0081 64.6042 32.9551 64.8655 32.8436C65.1267 32.7321 65.3586 32.5649 65.544 32.3545C65.7295 32.1441 65.8636 31.8958 65.9365 31.6281C66.0094 31.3605 66.0191 31.0803 65.9651 30.8085C65.4919 24.5154 62.9335 18.5395 58.6719 13.7727C58.6123 13.6781 58.5414 13.5906 58.4609 13.512C58.2852 13.3415 58.0766 13.2063 57.847 13.1141C57.6174 13.0219 57.3713 12.9745 57.1228 12.9746C56.8743 12.9747 56.6283 13.0224 56.3988 13.1148C56.1693 13.2072 55.9608 13.3426 55.7853 13.5133V13.5133Z" fill="#225DA9"/>
</svg>
