<svg width="25" height="25" viewBox="0 0 25 25" fill="none" xmlns="http://www.w3.org/2000/svg">
<path d="M21.48 5.46875H20.3169C20.3157 5.46875 20.3146 5.46921 20.3138 5.47004C20.313 5.47086 20.3125 5.47198 20.3125 5.47314V20.3125C20.3125 20.7269 20.4771 21.1243 20.7701 21.4174C21.0632 21.7104 21.4606 21.875 21.875 21.875C22.2894 21.875 22.6868 21.7104 22.9799 21.4174C23.2729 21.1243 23.4375 20.7269 23.4375 20.3125V7.42627C23.4375 6.9071 23.2313 6.4092 22.8642 6.04209C22.497 5.67499 21.9991 5.46875 21.48 5.46875Z" fill="#225DA9"/>
<path d="M18.75 20.3125V3.51563C18.75 3.25914 18.6995 3.00516 18.6013 2.7682C18.5032 2.53123 18.3593 2.31592 18.1779 2.13456C17.9966 1.95319 17.7813 1.80933 17.5443 1.71117C17.3073 1.61302 17.0534 1.5625 16.7969 1.5625H3.51563C2.99762 1.5625 2.50084 1.76828 2.13456 2.13456C1.76828 2.50084 1.5625 2.99762 1.5625 3.51563V20.7031C1.5625 21.4283 1.85059 22.1238 2.36338 22.6366C2.87617 23.1494 3.57167 23.4375 4.29688 23.4375H21.0376C21.045 23.4376 21.0523 23.4362 21.0592 23.4334C21.066 23.4306 21.0722 23.4264 21.0775 23.4212C21.0827 23.416 21.0868 23.4098 21.0896 23.4029C21.0924 23.3961 21.0938 23.3887 21.0938 23.3813C21.0937 23.3691 21.0896 23.3572 21.0821 23.3474C21.0746 23.3377 21.0641 23.3308 21.0522 23.3276C20.3914 23.1463 19.8083 22.7532 19.3924 22.2085C18.9765 21.6639 18.7508 20.9978 18.75 20.3125ZM4.6875 6.25C4.6875 6.0428 4.76981 5.84409 4.91632 5.69757C5.06284 5.55106 5.26155 5.46875 5.46875 5.46875H8.59375C8.80095 5.46875 8.99967 5.55106 9.14618 5.69757C9.29269 5.84409 9.375 6.0428 9.375 6.25V9.375C9.375 9.5822 9.29269 9.78092 9.14618 9.92743C8.99967 10.0739 8.80095 10.1563 8.59375 10.1563H5.46875C5.26155 10.1563 5.06284 10.0739 4.91632 9.92743C4.76981 9.78092 4.6875 9.5822 4.6875 9.375V6.25ZM14.8438 19.5313H5.49072C5.07031 19.5313 4.70947 19.208 4.68848 18.7876C4.68339 18.682 4.6998 18.5764 4.73671 18.4773C4.77363 18.3782 4.83028 18.2876 4.90323 18.2111C4.97619 18.1345 5.06393 18.0735 5.16114 18.0319C5.25834 17.9902 5.363 17.9688 5.46875 17.9688H14.8218C15.2422 17.9688 15.603 18.292 15.624 18.7124C15.6291 18.818 15.6127 18.9236 15.5758 19.0227C15.5389 19.1218 15.4822 19.2124 15.4093 19.2889C15.3363 19.3655 15.2486 19.4265 15.1514 19.4681C15.0542 19.5098 14.9495 19.5312 14.8438 19.5313ZM14.8438 16.4063H5.49072C5.07031 16.4063 4.70947 16.083 4.68848 15.6626C4.68339 15.557 4.6998 15.4514 4.73671 15.3523C4.77363 15.2532 4.83028 15.1626 4.90323 15.0861C4.97619 15.0095 5.06393 14.9485 5.16114 14.9069C5.25834 14.8652 5.363 14.8438 5.46875 14.8438H14.8218C15.2422 14.8438 15.603 15.167 15.624 15.5874C15.6291 15.693 15.6127 15.7986 15.5758 15.8977C15.5389 15.9968 15.4822 16.0874 15.4093 16.1639C15.3363 16.2405 15.2486 16.3015 15.1514 16.3431C15.0542 16.3848 14.9495 16.4062 14.8438 16.4063ZM14.8438 13.2813H5.49072C5.07031 13.2813 4.70947 12.958 4.68848 12.5376C4.68339 12.432 4.6998 12.3264 4.73671 12.2273C4.77363 12.1282 4.83028 12.0376 4.90323 11.9611C4.97619 11.8845 5.06393 11.8235 5.16114 11.7819C5.25834 11.7402 5.363 11.7188 5.46875 11.7188H14.8218C15.2422 11.7188 15.603 12.042 15.624 12.4624C15.6291 12.568 15.6127 12.6736 15.5758 12.7727C15.5389 12.8718 15.4822 12.9624 15.4093 13.0389C15.3363 13.1155 15.2486 13.1765 15.1514 13.2181C15.0542 13.2598 14.9495 13.2812 14.8438 13.2813ZM14.8438 10.1563H11.7407C11.3203 10.1563 10.9595 9.83301 10.9385 9.4126C10.9334 9.30697 10.9498 9.2014 10.9867 9.1023C11.0236 9.00319 11.0803 8.91262 11.1532 8.83606C11.2262 8.75949 11.3139 8.69854 11.4111 8.65689C11.5083 8.61524 11.613 8.59376 11.7188 8.59375H14.8218C15.2422 8.59375 15.603 8.91699 15.624 9.3374C15.6291 9.44304 15.6127 9.5486 15.5758 9.6477C15.5389 9.74681 15.4822 9.83738 15.4093 9.91395C15.3363 9.99051 15.2486 10.0515 15.1514 10.0931C15.0542 10.1348 14.9495 10.1562 14.8438 10.1563ZM14.8438 7.03125H11.7407C11.3203 7.03125 10.9595 6.70801 10.9385 6.2876C10.9334 6.18197 10.9498 6.0764 10.9867 5.9773C11.0236 5.87819 11.0803 5.78762 11.1532 5.71106C11.2262 5.63449 11.3139 5.57354 11.4111 5.53189C11.5083 5.49024 11.613 5.46876 11.7188 5.46875H14.8218C15.2422 5.46875 15.603 5.79199 15.624 6.2124C15.6291 6.31804 15.6127 6.4236 15.5758 6.5227C15.5389 6.62181 15.4822 6.71238 15.4093 6.78894C15.3363 6.86551 15.2486 6.92646 15.1514 6.96811C15.0542 7.00976 14.9495 7.03124 14.8438 7.03125Z" fill="#225DA9"/>
</svg>
