<svg width="24" height="24" viewBox="0 0 24 24" fill="none" xmlns="http://www.w3.org/2000/svg">
<path d="M21.2441 0.9661C19.9538 -0.322033 17.8644 -0.322033 16.5741 0.9661L15.4051 2.14162L2.96115 14.5801L2.93471 14.6068C2.9283 14.6132 2.9283 14.62 2.92149 14.62C2.90826 14.6399 2.88843 14.6595 2.87541 14.6793C2.87541 14.6859 2.86859 14.6859 2.86859 14.6925C2.85537 14.7124 2.84897 14.7256 2.83554 14.7454C2.82913 14.7521 2.82913 14.7585 2.82252 14.7653C2.81591 14.7851 2.8093 14.7983 2.80248 14.8182C2.80248 14.8246 2.79607 14.8246 2.79607 14.8314L0.0351357 23.1346C-0.0458557 23.371 0.0157143 23.6328 0.193606 23.8082C0.318605 23.9316 0.4872 24.0006 0.662612 24C0.734306 23.9988 0.80538 23.9876 0.873975 23.9669L9.17001 21.1991C9.17641 21.1991 9.17641 21.1991 9.18323 21.1927C9.2041 21.1865 9.22414 21.1776 9.24253 21.1661C9.2477 21.1654 9.25224 21.1632 9.25596 21.1597C9.27559 21.1464 9.30203 21.133 9.32187 21.1198C9.3415 21.1068 9.36154 21.0869 9.38137 21.0737C9.38798 21.0669 9.39439 21.0669 9.39439 21.0605C9.40121 21.0539 9.41443 21.0475 9.42104 21.034L23.034 7.41978C24.322 6.12938 24.322 4.03972 23.034 2.74952L21.2441 0.9661ZM8.95865 19.6467L4.36156 15.0494L15.8675 3.54237L20.4646 8.13968L8.95865 19.6467ZM3.71404 16.2714L7.73014 20.2877L1.69959 22.2957L3.71404 16.2714ZM22.1028 6.4949L21.4026 7.20179L16.8053 2.60406L17.5123 1.89738C18.2857 1.12458 19.5392 1.12458 20.3127 1.89738L22.1092 3.69403C22.8768 4.47096 22.8739 5.72169 22.1028 6.4949Z" fill="white"/>
</svg>
