<svg width="25" height="25" viewBox="0 0 25 25" fill="none" xmlns="http://www.w3.org/2000/svg">
<path d="M16.4062 12.5C15.4023 12.5 14.4316 12.0518 13.6718 11.2383C12.9331 10.4448 12.4819 9.38672 12.4023 8.25977C12.3173 7.05762 12.684 5.95215 13.4345 5.14648C14.185 4.34082 15.2343 3.90625 16.4062 3.90625C17.5698 3.90625 18.622 4.34863 19.3701 5.15234C20.1254 5.96387 20.4931 7.06738 20.4081 8.25928C20.3266 9.38769 19.8759 10.4453 19.1386 11.2378C18.3808 12.0518 17.4106 12.5 16.4062 12.5ZM22.8432 21.0938H9.96967C9.76269 21.0949 9.55822 21.0485 9.37199 20.9581C9.18576 20.8678 9.02273 20.736 8.89545 20.5728C8.76044 20.3958 8.66721 20.1906 8.62273 19.9725C8.57826 19.7545 8.58368 19.5292 8.63862 19.3135C9.04975 17.6626 10.0683 16.2935 11.5839 15.3545C12.9291 14.5215 14.6415 14.0625 16.4062 14.0625C18.2055 14.0625 19.873 14.502 21.226 15.3345C22.7451 16.2686 23.7651 17.6455 24.1743 19.3164C24.2285 19.5322 24.2334 19.7576 24.1884 19.9755C24.1434 20.1935 24.0498 20.3985 23.9145 20.5752C23.7873 20.7377 23.6247 20.8689 23.439 20.9587C23.2533 21.0486 23.0495 21.0948 22.8432 21.0938ZM7.17768 12.6953C5.45942 12.6953 3.94867 11.0977 3.80854 9.13428C3.7392 8.12842 4.05268 7.19824 4.68744 6.51611C5.31537 5.84082 6.20112 5.46875 7.17768 5.46875C8.15424 5.46875 9.03315 5.84277 9.66449 6.52197C10.3041 7.20947 10.6166 8.1377 10.5434 9.13525C10.4033 11.0981 8.89301 12.6953 7.17768 12.6953ZM10.3837 14.231C9.52485 13.811 8.4101 13.6011 7.17817 13.6011C5.73969 13.6011 4.34272 13.9761 3.24409 14.6567C1.99848 15.4297 1.16059 16.5552 0.82221 17.9141C0.772691 18.1095 0.768007 18.3136 0.80851 18.5112C0.849012 18.7087 0.933651 18.8945 1.0561 19.0547C1.17228 19.2038 1.32113 19.3244 1.49119 19.407C1.66125 19.4896 1.84799 19.5321 2.03705 19.5312H7.45698C7.54845 19.5312 7.63703 19.4991 7.70725 19.4405C7.77748 19.3819 7.8249 19.3005 7.84125 19.2104C7.84662 19.1797 7.85346 19.1489 7.86127 19.1187C8.27533 17.4556 9.24555 16.0503 10.6791 15.0259C10.7319 14.9879 10.7743 14.9373 10.8025 14.8788C10.8308 14.8202 10.844 14.7556 10.8409 14.6906C10.8379 14.6257 10.8187 14.5626 10.785 14.5069C10.7514 14.4513 10.7044 14.405 10.6484 14.3721C10.5717 14.3271 10.4838 14.2798 10.3837 14.231Z" fill="#225DA9"/>
</svg>
