<svg width="55" height="55" viewBox="0 0 55 55" fill="none" xmlns="http://www.w3.org/2000/svg">
<path d="M31.0484 2.70457V4.57832C31.0484 5.79352 31.8558 6.84575 33.0096 7.17272C41.6053 9.60818 47.9032 17.6035 47.9032 27.1058C47.9032 38.5434 38.7778 47.8015 27.5 47.8015C16.224 47.8015 7.09682 38.5452 7.09682 27.1058C7.09682 17.6048 13.3937 9.60841 21.9903 7.17272C23.1443 6.84575 23.9516 5.7933 23.9516 4.57799V2.70547C23.9516 0.93857 22.3067 -0.348616 20.6199 0.0921812C8.7161 3.20239 -0.0671434 14.1941 0.000386753 27.2556C0.0802254 42.6708 12.3617 55.0324 27.5592 54.9999C42.7198 54.9675 55 42.4913 55 27.1058C55 14.0997 46.2244 3.17304 34.3516 0.0847577C32.676 -0.35109 31.0484 0.94993 31.0484 2.70457Z" fill="#225DA9"/>
</svg>
