<svg width="168" height="165" viewBox="0 0 168 165" fill="none" xmlns="http://www.w3.org/2000/svg">
<path d="M145.525 45.0218C145.525 45.0218 138.636 79.5892 117.127 89.8032L115.885 84.8764C115.885 84.8764 136.874 72.7397 139.798 42.2579L145.525 45.0218Z" fill="#010101"/>
<path d="M104.429 103.782H91.4912V140.232H104.429V103.782Z" fill="#170F1C"/>
<path d="M48.7131 109.47H35.7754V139.672H48.7131V109.47Z" fill="#170F1C"/>
<path d="M69.8208 126.013C104.618 126.013 132.827 97.8039 132.827 63.0064C132.827 28.209 104.618 0 69.8208 0C35.0233 0 6.81445 28.209 6.81445 63.0064C6.81445 97.8039 35.0233 126.013 69.8208 126.013Z" fill="white"/>
<path d="M68.7003 92.8474C48.5126 92.8474 29.4464 83.7149 16.789 67.9734C16.2283 67.2924 15.7075 66.5714 15.1467 65.8504L14.7061 65.2496C14.3055 64.6888 13.905 64.088 13.5044 63.5272C13.3843 63.367 13.2642 63.2068 13.1841 63.0466C12.7034 62.3256 12.2228 61.5645 11.7822 60.8035C11.702 60.6432 11.5818 60.483 11.5017 60.3228C11.1412 59.722 10.7808 59.0811 10.4203 58.4403L10.0597 57.7993C9.65912 57.0784 9.29871 56.3574 8.93821 55.6364L8.85803 55.4361C8.53759 54.7953 8.21723 54.1143 7.93684 53.4734C6.33464 63.4471 7.13574 73.6611 10.3401 83.2342C16.9492 103.061 33.4919 118.643 53.6396 124.05L54.3605 123.73C54.6409 123.61 54.9614 123.449 55.2418 123.329C55.6023 123.169 55.9227 123.009 56.2832 122.809C56.5636 122.688 56.8438 122.528 57.1242 122.368C57.4847 122.208 57.8052 122.007 58.1657 121.807L58.9668 121.367C59.3273 121.166 59.6478 120.966 60.0083 120.766C60.2486 120.605 60.5289 120.485 60.7693 120.325C61.1298 120.125 61.4502 119.884 61.7706 119.684C62.011 119.524 62.2514 119.364 62.4917 119.204C62.8522 118.963 63.1725 118.723 63.533 118.483C63.7733 118.322 63.9737 118.202 64.214 118.002C64.5745 117.722 64.975 117.481 65.3355 117.201C65.5358 117.081 65.6961 116.92 65.8964 116.8C66.4572 116.4 66.9777 115.959 67.5385 115.519C76.8313 108.028 83.8008 98.0546 87.6061 86.7591C87.6061 86.719 87.6061 86.719 87.6462 86.679C87.9666 85.7577 88.247 84.8765 88.4874 83.9552C88.5274 83.8751 88.5273 83.795 88.5673 83.7149C83.5605 89.5228 76.3107 92.8474 68.7003 92.8474Z" fill="#2BA7DF"/>
<path d="M94.8155 66.7311C94.8155 86.9188 85.6829 105.985 69.9413 118.642C69.2203 119.203 68.4994 119.764 67.7784 120.284L67.1375 120.765C66.5767 121.166 66.0161 121.566 65.4553 121.927C65.255 122.087 65.0146 122.207 64.8144 122.367C64.0533 122.848 63.2922 123.369 62.5312 123.809L62.3309 123.93C61.6099 124.37 60.889 124.771 60.168 125.171C60.0478 125.211 59.9678 125.291 59.8877 125.331C88.8074 129.938 117.086 113.956 128.021 86.7986C127.901 86.4381 127.781 86.0776 127.661 85.7572C127.5 85.3566 127.38 84.9561 127.22 84.5555C127.06 84.1149 126.859 83.6343 126.659 83.1937C126.499 82.7931 126.339 82.3925 126.179 82.032C125.978 81.5914 125.778 81.1508 125.578 80.7102C125.378 80.3097 125.217 79.9492 125.017 79.5486C124.817 79.108 124.576 78.6674 124.336 78.2268C124.136 77.8663 123.935 77.4657 123.735 77.1053C123.495 76.6647 123.255 76.2241 122.974 75.8235C122.774 75.463 122.574 75.1025 122.333 74.7421C122.053 74.3014 121.772 73.8608 121.492 73.4202C121.292 73.0998 121.051 72.7393 120.851 72.4188C120.531 71.9382 120.21 71.4976 119.89 71.057C119.69 70.7766 119.489 70.4562 119.289 70.1758C118.848 69.535 118.368 68.9341 117.887 68.3333C117.807 68.2131 117.727 68.093 117.607 67.9728C113.922 63.4065 109.636 59.401 104.869 56.0364C104.188 55.5558 103.507 55.0751 102.786 54.6345C98.4204 51.8307 93.734 49.5475 88.8072 47.9052C87.886 47.5848 86.9247 47.3044 86.0034 47.0241C85.9233 46.984 85.8431 46.984 85.763 46.944C91.5309 51.9108 94.8155 59.1206 94.8155 66.7311Z" fill="#2087C9"/>
<path d="M93.1338 6.12833L92.2525 6.3687C91.9721 6.44881 91.6917 6.52886 91.4514 6.60897C91.171 6.68908 90.8906 6.76927 90.6102 6.88944C90.3298 6.96954 90.0494 7.0496 89.8091 7.12971L88.9679 7.41007C88.6875 7.49018 88.4472 7.61042 88.1668 7.69053L87.3258 7.9709C87.0454 8.09106 86.8051 8.17115 86.5247 8.25126C86.2443 8.33137 85.9639 8.45156 85.7236 8.57172C85.4432 8.69189 85.2029 8.77202 84.9225 8.89218C84.6421 9.01235 84.4018 9.13247 84.1214 9.25264C83.841 9.3728 83.6007 9.49293 83.3203 9.61309C83.0399 9.73326 82.7996 9.85348 82.5192 9.97365C82.2388 10.0938 81.9984 10.2139 81.758 10.3341C81.5177 10.4543 81.2373 10.6145 80.9569 10.7347C80.6765 10.8548 80.4362 10.975 80.1959 11.1352C79.9556 11.2954 79.6752 11.4156 79.3948 11.5758C79.1144 11.7361 78.8741 11.8562 78.6338 11.9764C78.3935 12.0966 78.1131 12.2567 77.8728 12.4169L77.1517 12.8576C76.9114 13.0178 76.631 13.178 76.3907 13.3382L75.6698 13.7789C75.3894 13.9391 75.1491 14.1394 74.8687 14.2996L74.1877 14.7401C73.9073 14.9404 73.6269 15.1007 73.3866 15.301L72.7858 15.7415C72.5054 15.9418 72.185 16.1822 71.9047 16.3824C71.7444 16.5026 71.5441 16.6227 71.3838 16.7429C70.9032 17.1034 70.4626 17.4639 70.022 17.8244C60.7293 25.3146 53.7597 35.2883 49.9544 46.5838C49.634 47.5051 49.3537 48.4664 49.0734 49.3877C49.0333 49.4678 49.0332 49.5479 48.9932 49.628C53.96 43.8601 61.1698 40.5356 68.7803 40.5356C88.968 40.5356 108.034 49.668 120.691 65.4096C121.252 66.1306 121.813 66.8116 122.334 67.5326L122.814 68.2135C123.215 68.7342 123.575 69.2549 123.936 69.8157L124.417 70.5367C124.817 71.1776 125.218 71.7784 125.618 72.4193C125.698 72.5394 125.778 72.6596 125.859 72.8198C126.339 73.5808 126.78 74.3419 127.18 75.143C127.301 75.3433 127.421 75.5836 127.541 75.7839C127.861 76.3848 128.142 76.9455 128.462 77.5463C128.582 77.7866 128.702 78.067 128.823 78.3073C129.103 78.9081 129.423 79.5491 129.704 80.19C129.784 80.3902 129.864 80.5905 129.984 80.7908C130.024 80.8709 130.064 80.911 130.064 80.9911C138.957 50.5493 123.736 18.2249 94.5756 5.72778L94.0149 5.88806C93.6544 5.96817 93.4142 6.04822 93.1338 6.12833Z" fill="#1F5DA9"/>
<path d="M42.6236 66.7312C42.6236 46.5435 51.7562 27.4773 67.4978 14.82C68.1787 14.2592 68.8996 13.7385 69.5805 13.2178C69.7407 13.0976 69.901 12.9775 70.0612 12.8573C70.7422 12.3366 71.4631 11.856 72.1841 11.3753C72.3042 11.2952 72.4244 11.215 72.5445 11.1349C73.1854 10.6943 73.8665 10.2938 74.5074 9.89328L74.9478 9.61282C75.6688 9.17221 76.4299 8.73163 77.1909 8.33108L77.6717 8.05071C78.3927 7.65016 79.1136 7.28965 79.8346 6.92915L80.075 6.80897C80.836 6.40842 81.6371 6.04795 82.4382 5.72751L82.9989 5.48724C83.8 5.12674 84.6011 4.8063 85.4022 4.48586L85.6426 4.40567C86.4036 4.12529 87.1646 3.84496 87.9657 3.56458L88.2862 3.44439C74.0267 -0.921593 58.6856 -0.0804397 44.9868 5.84769C27.643 13.4181 14.6251 28.3185 9.45801 46.5034C9.57817 46.8639 9.73839 47.2645 9.85856 47.625C9.97872 47.9855 10.139 48.4261 10.2992 48.7866C10.4995 49.2672 10.6597 49.7078 10.8599 50.1885C11.0202 50.589 11.1804 50.9496 11.3407 51.3501C11.5409 51.8308 11.7813 52.2714 11.9816 52.7521C12.1418 53.1126 12.3019 53.473 12.5022 53.8335C12.7426 54.3142 12.983 54.7548 13.2233 55.2354C13.4236 55.5959 13.5838 55.9163 13.7841 56.2768C14.0244 56.7575 14.3048 57.1981 14.5852 57.6787C14.7854 57.9992 14.9456 58.3196 15.1459 58.6801C15.4263 59.1608 15.7466 59.6415 16.0671 60.1221C16.2673 60.4025 16.4277 60.7229 16.628 61.0033C16.9885 61.524 17.3489 62.0448 17.7094 62.5254C17.8696 62.7658 18.0299 63.0061 18.2302 63.2464C18.791 64.0075 19.3516 64.7285 19.9124 65.4495C27.4027 74.7422 37.3765 81.7117 48.6719 85.5169C49.5932 85.8374 50.5145 86.1178 51.4758 86.3982L51.716 86.4783C45.908 81.5515 42.5836 74.3016 42.6236 66.7312Z" fill="#217CC1"/>
<path d="M8.61756 62.0848C8.61756 62.0848 -2.23749 77.7063 10.8605 85.5972L12.0621 89.4825C12.0621 89.4825 -1.43631 88.4811 0.125834 70.5766C0.446273 66.8114 2.08845 62.0048 6.85498 57.038L8.61756 62.0848Z" fill="#010101"/>
<path d="M93.2938 64.128C93.1336 64.8891 92.8932 65.6501 92.6529 66.3711C92.2523 67.8532 91.7317 69.3352 91.0908 70.7371C89.9292 73.581 88.327 76.1845 86.3243 78.5077C85.3229 79.6292 84.2012 80.6707 82.9595 81.592C81.7579 82.4732 80.4361 83.2343 79.0342 83.795C77.6323 84.3959 76.1904 84.8364 74.7084 85.0768C73.9874 85.1969 73.2263 85.3171 72.4652 85.3571C71.7042 85.3972 70.9431 85.4372 70.182 85.4372C68.6599 85.4372 67.1379 85.3171 65.6158 85.0768C64.1338 84.7964 62.6919 84.3558 61.2899 83.795C59.888 83.2343 58.5661 82.4732 57.3644 81.592C56.1628 80.6707 55.0413 79.6292 53.9999 78.5077C51.9971 76.1845 50.395 73.5409 49.2334 70.7371C48.6326 69.2951 48.1119 67.8532 47.6713 66.3711C47.4309 65.6501 47.2707 64.8891 47.0704 64.128C46.9903 63.7675 46.9102 63.407 46.8301 63.0865C48.0718 64.849 49.6339 66.4111 51.3963 67.6929C54.801 70.2163 60.7692 73.1805 70.102 73.2606H70.2622C79.6351 73.2205 85.6032 70.2163 89.0078 67.6929C90.6501 66.4512 92.0922 65.0093 93.3339 63.367C93.374 63.6474 93.3339 63.8877 93.2938 64.128Z" fill="#7A1711"/>
<path d="M93.1334 63.2465C91.9718 64.8086 90.5697 66.1705 88.9675 67.332C85.5629 69.8956 79.5948 72.8996 70.2219 72.8996H70.0617C60.7289 72.8996 54.7206 69.8956 51.356 67.332C49.7939 66.2105 48.4321 64.8487 47.2705 63.3666C51.1158 69.8555 58.1655 77.6662 69.9015 77.9466H70.5024C82.2385 77.6262 89.2881 69.7754 93.1334 63.2465Z" fill="white"/>
<path d="M82.3592 81.9926C78.7543 79.9097 74.6687 78.7881 70.543 78.708H69.9422C65.7364 78.7881 61.6108 79.9498 57.9658 82.0727C58.9672 82.7937 60.0888 83.3544 61.2103 83.8351C62.6122 84.4359 64.0541 84.8765 65.5362 85.1168C67.0583 85.3571 68.5805 85.4774 70.1026 85.4774C70.8636 85.4774 71.6246 85.4373 72.3856 85.3973C73.1466 85.3572 73.8677 85.277 74.6287 85.1168C76.1107 84.8364 77.5526 84.3958 78.9546 83.8351C80.1562 83.3143 81.2778 82.7136 82.3592 81.9926Z" fill="#F3A1AC"/>
<path d="M87.9658 60.7232C88.847 60.3627 89.7684 60.2025 90.7298 60.2426C91.7311 60.2025 92.6923 60.4428 93.5735 60.9235C94.4948 61.3641 95.1757 62.1251 95.5763 63.0864C95.9368 64.0077 96.057 64.9691 95.8968 65.9705C95.7366 65.0892 95.416 64.2481 94.9754 63.447C94.5348 62.726 93.8941 62.1252 93.1331 61.7647C92.372 61.3641 91.5308 61.1238 90.6897 61.0036C89.7684 60.8033 88.8871 60.7232 87.9658 60.7232Z" fill="#111111"/>
<path d="M52.3568 60.7232C51.4756 60.7633 50.5545 60.8435 49.6733 60.9636C48.7921 61.0838 47.9508 61.3241 47.1898 61.7246C46.4688 62.1252 45.8279 62.726 45.3873 63.4069C44.9467 64.168 44.6263 65.0492 44.4661 65.9304C44.3059 64.9691 44.426 63.9677 44.7865 63.0465C45.187 62.1252 45.908 61.3641 46.7892 60.8834C47.6704 60.4428 48.6318 60.2025 49.5931 60.2025C50.5544 60.2025 51.4756 60.3628 52.3568 60.7232Z" fill="#111111"/>
<path d="M64.6934 94.4092C65.5746 94.8498 66.4958 95.2503 67.4571 95.5306C68.3383 95.811 69.2996 96.0114 70.2209 96.0114C71.1822 96.0514 72.1034 95.9713 73.0247 95.6909C73.946 95.3705 74.8272 94.9299 75.6684 94.4092C75.0675 95.2503 74.2665 95.9312 73.3052 96.3718C72.3038 96.8124 71.2623 97.0127 70.1808 96.9727C69.1393 96.9326 68.138 96.6523 67.1766 96.2117C66.2554 95.771 65.4143 95.1702 64.6934 94.4092Z" fill="#111111"/>
<path d="M70.2625 73.2203H70.1023C60.7695 73.2203 54.8013 70.2162 51.3966 67.6527C47.7115 64.8889 46.2295 62.1651 46.1895 62.0049L46.9906 61.6044C48.3124 63.6872 49.9947 65.4897 51.9974 66.9317C55.2819 69.375 61.0899 72.259 70.2224 72.299C87.7264 72.259 93.3341 61.6845 93.4543 61.6044L94.2554 62.0049C94.2153 62.1251 92.7333 64.8889 89.0482 67.6527C85.5635 70.2162 79.5953 73.2203 70.2625 73.2203Z" fill="#111111"/>
<path d="M46.5498 61.8446C46.67 62.6056 46.8302 63.3667 46.9904 64.1277C47.1507 64.8888 47.391 65.6098 47.6314 66.3708C48.0319 67.8529 48.5526 69.2948 49.1935 70.6967C50.3551 73.5406 51.9572 76.1843 53.96 78.5475C54.9613 79.669 56.0828 80.7104 57.3245 81.6317C58.5262 82.5129 59.8481 83.274 61.25 83.8347C62.652 84.4355 64.0939 84.8761 65.5759 85.1165C67.0579 85.3568 68.5801 85.477 70.1022 85.477C70.9033 85.477 71.6642 85.437 72.3852 85.3969C73.1463 85.3569 73.9074 85.2767 74.6684 85.1165C76.1505 84.8361 77.5924 84.3955 78.9943 83.8347C80.3962 83.274 81.7182 82.5129 82.9198 81.6317C84.1214 80.7104 85.2429 79.669 86.2844 78.5475C88.2871 76.2243 89.8893 73.5806 91.0509 70.6967C91.6517 69.2948 92.1724 67.8529 92.613 66.3708C92.8533 65.6498 93.0536 64.8888 93.2138 64.1277C93.374 63.3667 93.5744 62.6056 93.6945 61.8446C93.5343 63.4067 93.294 64.9288 92.9335 66.4509C92.573 67.973 92.1323 69.455 91.6116 70.9371C90.5301 73.9011 88.9679 76.6649 86.9652 79.1082C84.9224 81.5516 82.359 83.5143 79.475 84.8361C73.5069 87.1593 66.8577 87.1593 60.8495 84.8361C57.9655 83.5143 55.4019 81.5516 53.3591 79.1082C51.3564 76.6649 49.7942 73.9011 48.7127 70.9371C48.152 69.4951 47.7114 67.973 47.391 66.4509C46.9504 64.9288 46.71 63.4067 46.5498 61.8446Z" fill="#111111"/>
<path d="M97.5398 62.5657C97.5799 61.8847 97.6198 61.2839 97.6198 60.643C97.5798 60.0422 97.3795 59.4414 97.019 59.161C96.8187 59.0008 96.5785 58.9206 96.2981 58.8805H95.3767C94.7358 58.9606 94.0549 59.0008 93.4141 58.9607C94.0149 58.6803 94.6559 58.48 95.3368 58.3198C95.6573 58.2397 96.0176 58.1997 96.3781 58.2397C96.7386 58.2397 97.1392 58.3599 97.4597 58.5602C97.7801 58.8005 97.9804 59.161 98.1006 59.5615C98.1807 59.922 98.2206 60.2825 98.1806 60.643C98.1005 61.3239 97.8603 61.9648 97.5398 62.5657Z" fill="#111111"/>
<path d="M42.9045 62.5656C42.584 61.9648 42.3837 61.3239 42.3036 60.6429C42.2636 60.2824 42.2636 59.922 42.3437 59.5615C42.4639 59.201 42.6642 58.8405 42.9847 58.5601C43.3051 58.3598 43.7056 58.2396 44.1061 58.2396C44.4666 58.2396 44.7871 58.2396 45.1476 58.3197C45.7885 58.4399 46.4294 58.6802 47.0302 58.9606C46.3894 58.9606 45.7085 58.9606 45.0676 58.8804H44.1863C43.946 58.9205 43.6657 59.0007 43.4654 59.1609C43.0648 59.4413 42.9447 60.0421 42.8646 60.6429C42.7845 61.2838 42.8244 61.9247 42.9045 62.5656Z" fill="#111111"/>
<path d="M142.601 27.3173C142.601 27.3173 142 22.9914 139.076 20.9886C136.152 18.9859 133.429 19.5867 132.107 21.5894C130.785 23.5922 133.989 25.9554 134.59 27.5576C135.191 29.1998 136.433 33.6459 138.275 36.1694C138.275 36.1694 135.872 36.9705 136.473 39.2136C137.034 41.4567 139.757 44.9414 144.724 46.2632C149.691 47.585 152.695 45.3019 151.894 42.6984C151.894 42.6984 156.46 41.5768 162.108 35.2882C167.756 28.9996 167.636 26.6364 166.194 25.3947C164.792 24.153 163.31 25.1944 161.868 26.4761C160.466 27.7979 156.14 30.9623 155.539 31.2827C155.539 31.2827 161.587 23.9526 162.108 21.5493C162.629 19.106 162.028 17.624 160.025 16.9831C158.022 16.3823 152.335 22.3906 150.412 25.3146C150.412 25.3146 153.296 17.9044 152.014 14.9804C150.732 12.0564 148.169 12.2166 146.486 13.2981C144.764 14.3796 144.524 18.1848 144.283 21.3091C144.083 23.3919 143.523 25.4347 142.601 27.3173Z" fill="white"/>
<path d="M144.764 46.3031C146.967 46.9039 148.769 46.7438 150.011 46.1429C148.769 46.7438 147.007 46.8639 144.764 46.3031Z" fill="#DFDBE7"/>
<path d="M141.961 39.7344C143.042 40.896 144.204 42.0576 145.285 43.2192C145.726 43.6999 146.247 44.3007 146.046 44.9416C146.006 45.0617 145.966 45.1418 145.886 45.2219C145.526 45.7427 144.765 45.9029 144.124 45.9029C143.924 45.9029 143.723 45.9029 143.523 45.9029C143.924 46.023 144.324 46.1431 144.685 46.2633L144.765 46.3034C146.968 46.9042 148.77 46.744 150.012 46.1432C150.613 45.9029 151.133 45.4623 151.534 44.9416C152.015 44.2606 152.135 43.4194 151.854 42.6584C151.854 42.6584 156.421 41.5368 162.068 35.2482C163.23 34.0065 164.271 32.6848 165.273 31.3229C167.596 27.9182 167.276 26.316 166.154 25.3547L166.114 25.3147C165.954 25.1544 165.754 25.0342 165.553 24.9541C165.353 25.4748 165.073 25.9555 164.792 26.4361C164.672 26.5963 164.592 26.7966 164.432 27.0369C163.711 28.0383 162.91 28.9997 162.028 29.8809C160.106 31.9637 158.303 32.5646 156.861 34.6875C156.661 34.9679 156.501 35.2482 156.381 35.5687C155.86 36.4899 155.459 37.4913 154.859 38.2924C153.777 39.8546 152.255 41.0161 148.971 40.5755C146.607 40.2551 143.964 41.2165 141.961 39.7344Z" fill="#DFDBE7"/>
<path d="M162.108 21.5494C161.948 22.3505 161.066 23.7926 160.065 25.3147C158.663 27.3975 156.981 29.5204 156.1 30.6019C156.981 29.5204 158.703 27.3174 160.065 25.3147C161.106 23.7926 161.948 22.3505 162.108 21.5494Z" fill="#DFDBE7"/>
<path d="M157.541 24.9141C157.341 25.1945 157.14 25.5148 156.94 25.8353C155.738 27.7579 154.777 29.9609 154.857 32.2441C154.937 32.0037 155.058 31.7634 155.218 31.5632C155.418 31.2427 155.698 30.9624 155.979 30.7221C156.019 30.642 156.059 30.6019 156.059 30.6019C156.94 29.5204 158.623 27.3574 160.024 25.3146C161.026 23.8326 161.907 22.3505 162.067 21.5494L162.107 21.5094L162.147 21.4693L162.107 21.4292C162.388 20.1875 162.308 19.1862 161.947 18.4652C161.627 19.066 161.306 19.6669 160.906 20.1876L160.665 20.548C160.185 21.269 159.624 22.0301 159.063 22.7111C158.502 23.392 158.022 24.1531 157.541 24.9141Z" fill="#DFDBE7"/>
<path d="M134.391 27.1572C134.431 27.2774 134.511 27.3976 134.591 27.5578C134.711 27.7981 134.791 28.0785 134.871 28.3589C134.791 28.0785 134.711 27.8382 134.591 27.5578C134.551 27.3976 134.471 27.3174 134.391 27.1572Z" fill="#DFDBE7"/>
<path d="M132.667 24.8341C133.268 25.6753 133.989 26.4764 134.389 27.1974C134.43 27.3176 134.51 27.4377 134.59 27.598C134.71 27.8383 134.79 28.1187 134.87 28.3991C135.431 30.1615 136.072 31.9239 136.833 33.6062C136.512 32.2043 136.713 30.6421 136.432 29.1601C135.992 27.1573 134.59 25.5551 132.667 24.8341Z" fill="#DFDBE7"/>
<path d="M145.886 30.8423C147.608 33.3657 147.848 36.5702 146.487 39.2939C147.168 38.8934 147.768 38.3326 148.209 37.6516C148.81 36.8105 149.13 35.7691 149.09 34.7277C149.05 32.9653 147.688 31.2028 145.886 30.8423Z" fill="#DFDBE7"/>
<path d="M140.519 38.7329C140.158 38.5727 139.838 38.3725 139.557 38.1321C139.237 37.8918 138.956 37.6514 138.716 37.371C138.195 36.8103 137.755 36.2095 137.314 35.6086C136.874 35.0078 136.473 34.3268 136.153 33.6459C135.832 32.965 135.552 32.244 135.351 31.5231L135.031 30.4415C134.951 30.1211 134.831 29.8007 134.711 29.4001C134.51 28.7192 134.23 28.0783 133.869 27.4775C133.549 26.8366 133.188 26.2759 132.708 25.7151C132.467 25.4347 132.227 25.1542 132.027 24.8338C131.867 24.6736 131.746 24.5134 131.666 24.3132C131.546 24.1129 131.426 23.9126 131.386 23.6723C131.266 23.2316 131.226 22.751 131.346 22.3104C131.426 21.8698 131.586 21.4693 131.827 21.1088C132.267 20.3878 132.908 19.7869 133.669 19.4264C134.43 19.106 135.311 18.9859 136.112 19.106C136.353 19.1461 136.513 19.1861 136.753 19.2261C136.834 19.2662 136.954 19.3063 137.034 19.3063L137.314 19.4264C137.514 19.4664 137.715 19.5466 137.875 19.6668C138.035 19.7068 138.195 19.827 138.396 19.9471C139.077 20.3477 139.677 20.8284 140.238 21.3891C140.759 21.9499 141.24 22.5908 141.6 23.2717C141.961 23.9526 142.201 24.6736 142.361 25.4346C142.561 26.1957 142.642 26.9568 142.601 27.7178L142.161 27.5576C142.361 27.2772 142.521 26.9568 142.641 26.5963C142.802 26.3159 142.962 25.9954 143.042 25.6349C143.282 24.954 143.483 24.2731 143.643 23.5521C143.723 23.2316 143.763 22.8712 143.763 22.5107C143.803 22.1903 143.843 21.7897 143.883 21.4692C143.883 21.1087 143.883 20.7483 143.883 20.3878C143.883 19.9872 143.923 19.6668 143.923 19.2662C143.963 18.5452 144.043 17.8243 144.164 17.1033C144.244 16.3422 144.444 15.5812 144.724 14.8602C144.844 14.4997 145.045 14.1392 145.245 13.7787C145.485 13.4583 145.726 13.1378 146.046 12.8574C146.407 12.577 146.767 12.3767 147.208 12.2165C147.608 12.0963 148.009 12.0163 148.449 12.0563C149.29 12.0563 150.092 12.2566 150.813 12.6972C151.534 13.1378 152.094 13.8188 152.375 14.5798C152.655 15.3008 152.855 16.0618 152.855 16.8629C152.895 17.624 152.815 18.385 152.695 19.146L152.575 19.6668C152.575 19.867 152.495 20.0673 152.455 20.2275C152.375 20.588 152.295 20.9485 152.215 21.269C151.974 21.9899 151.774 22.6709 151.494 23.3919C151.213 24.0728 150.933 24.7538 150.652 25.3946C150.332 26.0756 150.052 26.7164 149.731 27.3573L149.291 27.117C149.611 26.4761 150.012 25.9154 150.372 25.3145C150.733 24.7137 151.133 24.1129 151.534 23.5121C152.335 22.3905 153.176 21.2289 154.097 20.1074C154.578 19.5466 155.058 19.0259 155.539 18.5052C156.06 17.9845 156.661 17.5038 157.222 17.0632C157.542 16.8229 157.902 16.6226 158.263 16.5025C158.383 16.4624 158.463 16.4223 158.583 16.4223L158.744 16.3823L158.904 16.3422C159.104 16.3422 159.344 16.3021 159.545 16.2621C159.985 16.2621 160.426 16.3422 160.826 16.4624C161.227 16.6226 161.587 16.903 161.908 17.1834C162.509 17.7842 162.829 18.5853 162.909 19.4665C163.029 20.2676 162.949 21.0686 162.669 21.8297C162.469 22.5507 162.188 23.2316 161.788 23.8725C161.587 24.193 161.387 24.5134 161.187 24.8338C160.987 25.1142 160.746 25.4347 160.506 25.675C160.105 26.1957 159.625 26.7565 159.184 27.3173C158.744 27.838 158.263 28.3587 157.822 28.9195L156.5 30.5217L155.859 31.3628C155.619 31.6432 155.419 31.8835 155.179 32.204L154.818 31.8434C155.539 31.3227 156.18 30.802 156.901 30.2813C157.622 29.7606 158.263 29.1998 158.904 28.639C159.545 28.0783 160.266 27.5176 160.866 26.9167C161.467 26.3159 162.148 25.7551 162.709 25.1143L162.789 24.954L162.829 24.8739L162.909 24.8338C163.029 24.7136 163.149 24.6336 163.27 24.5534C163.47 24.3932 163.75 24.2731 164.031 24.193C164.592 24.0328 165.152 24.0728 165.673 24.3132C166.154 24.5134 166.594 24.8338 166.915 25.2744C167.235 25.675 167.476 26.1957 167.596 26.6764C167.796 27.6777 167.676 28.6791 167.235 29.6004C167.035 30.041 166.835 30.4416 166.554 30.802L166.514 30.8821L166.474 30.9622L166.394 31.0824L166.154 31.3228L165.953 31.6031L165.713 31.8434C165.192 32.5644 164.592 33.2053 163.991 33.8863C163.39 34.5271 162.829 35.168 162.188 35.8089C161.547 36.4498 160.906 37.0106 160.266 37.6114C159.625 38.1722 158.944 38.7329 158.263 39.2937C157.582 39.8544 156.861 40.3752 156.14 40.8959C155.94 41.016 155.779 41.1362 155.579 41.2563L155.299 41.4566L155.018 41.6169C154.618 41.8572 154.217 42.0174 153.777 42.2177C152.936 42.5381 152.054 42.6983 151.133 42.6983C150.252 42.7384 149.331 42.6182 148.489 42.2978C148.93 42.3779 149.331 42.418 149.771 42.418C150.212 42.418 150.652 42.418 151.093 42.3379C151.934 42.2578 152.735 42.0575 153.536 41.697C153.937 41.5368 154.297 41.3365 154.658 41.0961L154.938 40.936L155.219 40.7757C155.419 40.6555 155.579 40.5354 155.739 40.4152C156.46 39.8945 157.141 39.3337 157.782 38.7729C158.423 38.2122 159.064 37.6113 159.705 36.9705C160.346 36.3296 160.946 35.7689 161.507 35.128C162.148 34.4871 162.669 33.8462 163.27 33.2053C163.83 32.5244 164.391 31.8835 164.872 31.2026L165.112 30.9622L165.312 30.6819L165.513 30.4015L165.593 30.2813L165.633 30.2012L165.673 30.1211C165.873 29.8007 166.073 29.4402 166.274 29.0797C166.594 28.3987 166.674 27.5976 166.514 26.8366C166.434 26.4761 166.314 26.1557 166.073 25.8753C165.873 25.5949 165.593 25.3946 165.272 25.2744C164.992 25.1543 164.672 25.1142 164.391 25.1543C164.231 25.1943 164.111 25.2745 163.991 25.3946C163.911 25.4347 163.871 25.4748 163.79 25.5148L163.75 25.5949H163.71L163.63 25.7151L163.15 26.1957L162.709 26.6363C162.348 26.9567 162.028 27.2372 161.708 27.5176C160.987 28.1184 160.346 28.639 159.625 29.1598C158.904 29.6805 158.183 30.2012 157.462 30.6819C156.741 31.1625 156.02 31.6031 155.259 32.0838L155.219 32.1239C155.099 32.204 154.938 32.1639 154.858 32.0437C154.818 31.9636 154.818 31.8434 154.898 31.7633C155.259 31.1625 155.659 30.6018 156.06 30.001L157.261 28.2385C157.662 27.6377 158.063 27.117 158.503 26.5562C158.944 25.9954 159.304 25.4347 159.745 24.8739C159.945 24.5535 160.186 24.3131 160.386 24.0327C160.506 23.7523 160.706 23.472 160.866 23.1916C161.187 22.6308 161.467 22.03 161.628 21.3891C161.748 20.7883 161.788 20.1474 161.748 19.5466C161.708 18.9858 161.467 18.425 161.067 18.0245C160.706 17.6239 160.186 17.4236 159.625 17.4236C159.505 17.4637 159.344 17.4637 159.224 17.4637L159.104 17.5038L158.984 17.5438C158.904 17.5438 158.864 17.5839 158.784 17.6239C158.503 17.7441 158.223 17.9043 157.983 18.0646C157.462 18.4251 156.941 18.9057 156.42 19.3463C155.9 19.827 155.459 20.3076 155.018 20.8283C154.538 21.309 154.057 21.8297 153.656 22.3905C153.176 22.9513 152.775 23.472 152.295 23.9927C151.814 24.5535 151.454 25.0742 151.013 25.675L150.372 26.5162C150.132 26.7966 149.931 27.0769 149.731 27.3573L149.691 27.3974C149.611 27.4775 149.451 27.5175 149.371 27.4374C149.251 27.3573 149.21 27.2372 149.291 27.117C149.411 26.7966 149.571 26.4361 149.691 26.1156C149.811 25.7952 149.971 25.4347 150.092 25.1143C150.332 24.4734 150.612 23.7925 150.813 23.1115C151.013 22.4306 151.253 21.7095 151.414 21.0286L151.654 19.9872C151.654 19.827 151.694 19.6668 151.734 19.4665L151.854 18.9458C151.934 18.2648 151.934 17.5839 151.934 16.903C151.894 16.2221 151.774 15.5812 151.494 14.9804C151.253 14.4196 150.853 13.9389 150.332 13.6184C149.811 13.298 149.17 13.1378 148.53 13.1779C147.929 13.1779 147.368 13.3381 146.887 13.6986C146.407 14.1392 146.086 14.7 145.846 15.3008C145.605 15.9417 145.405 16.5825 145.325 17.2635C145.205 17.9444 145.085 18.6654 145.045 19.3463C145.005 19.6667 145.005 20.0272 144.965 20.4278L144.925 20.9485C144.925 21.1488 144.925 21.3091 144.925 21.5093L144.764 22.6308C144.684 22.9913 144.644 23.3519 144.524 23.7123C144.324 24.4333 144.083 25.1542 143.803 25.8352C143.523 26.5161 143.122 27.157 142.681 27.7578L142.641 27.7979C142.561 27.878 142.401 27.918 142.321 27.8379C142.241 27.7979 142.201 27.7178 142.201 27.5977C142.201 27.2372 142.121 26.8766 142.081 26.5562C142.041 26.1957 141.92 25.8353 141.84 25.5148C141.64 24.8339 141.36 24.193 140.959 23.5922C140.278 22.3905 139.237 21.3892 137.995 20.7082C137.835 20.6682 137.715 20.548 137.514 20.508C137.434 20.4679 137.354 20.4278 137.274 20.3878C137.194 20.3477 137.114 20.3077 137.034 20.3077L136.793 20.1875C136.713 20.1875 136.633 20.1475 136.553 20.1074C136.393 20.0673 136.233 20.0272 136.072 20.0272C134.791 19.7869 133.469 20.4278 132.828 21.5493C132.507 22.03 132.428 22.6308 132.588 23.1916C132.628 23.3118 132.668 23.4319 132.748 23.5521C132.788 23.6322 132.908 23.8325 132.988 23.9126C133.229 24.2331 133.469 24.5134 133.669 24.7938C134.15 25.3946 134.59 26.0355 134.951 26.7165C135.271 27.3974 135.552 28.1183 135.792 28.8794C135.912 29.2399 135.992 29.6404 136.112 29.9609L136.353 31.0423C136.513 31.7233 136.753 32.4042 136.994 33.0852C137.274 33.726 137.635 34.3669 137.995 34.9677C138.396 35.5685 138.796 36.1694 139.237 36.7302C139.717 37.291 140.158 37.8918 140.559 38.5327L140.519 38.7329Z" fill="#170F1C"/>
<path d="M138.356 36.3697C138.316 36.4097 138.316 36.4098 138.276 36.4098L138.116 36.4899C137.996 36.57 137.795 36.7302 137.555 36.9305C137.275 37.1708 137.074 37.4512 136.954 37.8117C136.874 38.012 136.834 38.2523 136.794 38.4926C136.794 38.7329 136.794 38.9732 136.834 39.1735C136.954 39.7343 137.194 40.2951 137.515 40.7757C137.595 40.8959 137.675 41.0562 137.755 41.1363C137.835 41.2965 137.955 41.4166 138.036 41.5768C138.236 41.8171 138.476 42.0575 138.676 42.3379C139.678 43.3793 140.919 44.2205 142.241 44.8213C142.922 45.1017 143.643 45.3821 144.364 45.6224C145.085 45.7826 145.806 45.9028 146.487 46.0229C146.808 46.063 147.168 46.103 147.489 46.103C147.809 46.103 148.13 46.103 148.41 46.0629C148.971 45.9828 149.531 45.8226 150.092 45.5823C150.493 45.382 150.853 45.0616 151.134 44.661C151.374 44.3806 151.494 44.0201 151.534 43.6596C151.574 43.4193 151.574 43.179 151.534 42.9787C151.574 42.8986 151.534 42.7785 151.494 42.6984C151.494 42.5381 151.574 42.418 151.734 42.418C151.855 42.418 151.975 42.4981 152.015 42.6183C152.015 42.7384 152.015 42.8185 152.055 42.8986C152.095 43.179 152.135 43.4595 152.095 43.7398C152.095 44.2205 151.975 44.661 151.734 45.0616C151.574 45.3019 151.414 45.5422 151.214 45.7826C150.973 45.9829 150.733 46.1832 150.493 46.3434C149.892 46.6638 149.251 46.9041 148.57 47.0643C147.809 47.1845 147.048 47.1845 146.287 47.1044C145.926 47.0644 145.526 46.9843 145.125 46.9442C144.725 46.8641 144.364 46.7839 143.964 46.6638C143.163 46.4635 142.402 46.1832 141.681 45.8227C140.96 45.5022 140.239 45.1016 139.558 44.661C138.917 44.1804 138.316 43.6196 137.795 43.0588C137.555 42.7784 137.315 42.4981 137.074 42.1776C136.954 42.0174 136.874 41.8973 136.794 41.7371C136.714 41.5769 136.634 41.4567 136.514 41.2964C136.353 40.976 136.193 40.6556 136.073 40.3352C135.993 40.0147 135.913 39.6942 135.873 39.3738C135.792 39.0534 135.792 38.7329 135.873 38.4125C135.913 38.1321 135.993 37.8517 136.113 37.6114C136.313 37.1708 136.634 36.8103 136.994 36.5299C137.195 36.3297 137.475 36.1694 137.715 36.0492C137.795 36.0092 137.835 36.0092 137.915 35.9691C137.955 35.9691 137.996 35.9692 137.996 35.9291C138.156 35.8891 138.276 35.9691 138.316 36.0893C138.556 36.2095 138.476 36.3296 138.356 36.3697Z" fill="#170F1C"/>
<path d="M141.56 39.3739C141.64 39.414 141.76 39.454 141.84 39.4941C142.08 39.5742 142.321 39.6944 142.521 39.8145C142.641 39.8546 142.801 39.9347 142.961 40.0148C143.122 40.0949 143.282 40.175 143.482 40.2551C143.642 40.3753 143.843 40.4554 144.003 40.5356C144.203 40.6157 144.323 40.6958 144.524 40.8159C144.724 40.896 144.884 41.0162 145.044 41.0963C145.204 41.1363 145.365 41.2565 145.565 41.3766C145.765 41.4568 145.885 41.5369 146.086 41.617C146.246 41.6971 146.366 41.7772 146.526 41.8173C146.647 41.8974 146.767 41.9775 146.887 42.0176C147.007 42.0977 147.127 42.1377 147.167 42.1777L147.408 42.338C147.328 42.338 147.207 42.338 147.127 42.338C147.047 42.338 146.927 42.338 146.847 42.338C146.686 42.298 146.566 42.2979 146.406 42.2578C146.246 42.2178 146.086 42.2178 145.885 42.1777C145.685 42.1377 145.525 42.0977 145.325 42.0176C145.164 41.9375 144.924 41.8974 144.724 41.8173C144.524 41.7372 144.363 41.617 144.203 41.5369C144.043 41.4969 143.843 41.3366 143.642 41.2565L143.122 40.896L142.681 40.6156C142.521 40.4955 142.401 40.3753 142.28 40.2952C142.08 40.135 141.92 39.9347 141.76 39.7345C141.64 39.4941 141.56 39.414 141.56 39.3739Z" fill="#170F1C"/>
<path d="M146.046 39.654L146.166 39.614C146.206 39.5339 146.366 39.4938 146.487 39.3736C146.807 39.1333 147.128 38.8129 147.368 38.4924C147.568 38.2921 147.728 38.0518 147.889 37.8115C148.049 37.5712 148.169 37.2908 148.289 37.0104C148.409 36.69 148.489 36.4096 148.57 36.0891C148.65 35.7687 148.65 35.4483 148.61 35.1278C148.65 34.8074 148.61 34.4469 148.529 34.1665C148.449 33.846 148.329 33.5656 148.169 33.2452C148.049 32.9648 147.929 32.6844 147.728 32.4441C147.568 32.2038 147.408 32.0035 147.208 31.8033C146.927 31.4828 146.607 31.2024 146.246 31.0022L145.966 30.8019L145.846 30.7218C145.886 30.7619 145.926 30.7618 145.966 30.7618C146.086 30.7618 146.206 30.8018 146.326 30.8419C146.767 31.0021 147.168 31.2024 147.488 31.4828C147.728 31.643 147.969 31.8433 148.129 32.0836C148.369 32.364 148.57 32.6444 148.73 32.9248C148.89 33.2453 149.05 33.6058 149.17 33.9262C149.25 34.3267 149.331 34.6872 149.331 35.0878C149.331 35.4883 149.291 35.8488 149.21 36.2493C149.13 36.6098 149.01 36.9302 148.81 37.2507C148.65 37.5711 148.449 37.8516 148.249 38.132C148.049 38.3723 147.849 38.5725 147.608 38.7728C147.248 39.0532 146.887 39.2935 146.487 39.4537C146.366 39.4938 146.246 39.5338 146.126 39.5739C146.086 39.654 146.046 39.6139 146.046 39.654Z" fill="#170F1C"/>
<path d="M82.0781 160.219C82.5588 166.628 102.706 164.505 106.031 162.342C107.192 161.621 107.914 160.219 107.914 158.537C108.154 155.693 107.193 152.128 106.271 149.284C105.11 144.758 105.31 144.758 104.389 141.674C104.389 141.674 104.629 136.427 97.9798 134.544C91.3307 132.662 88.7273 145.239 87.5256 147.842C86.5643 149.965 82.5588 153.09 82.0781 158.537V160.219Z" fill="#3BB9C3"/>
<path d="M101.545 145.72L102.026 144.999C101.786 144.758 95.8575 140.953 90.8506 143.316L91.091 144.037C95.8174 142.155 101.545 145.72 101.545 145.72Z" fill="white"/>
<path d="M101.064 151.447L101.545 150.726C101.304 150.486 95.3761 146.681 90.1689 148.844L90.6497 149.805C95.3762 147.882 100.824 151.447 101.064 151.447Z" fill="white"/>
<path d="M101.305 148.564L101.786 147.843C101.545 147.602 95.6172 143.797 90.6504 145.96L90.8908 146.921C95.6172 144.999 101.305 148.564 101.305 148.564Z" fill="white"/>
<path d="M100.824 145.479C100.824 146.2 101.305 146.641 101.785 146.641C102.426 146.641 102.987 146.12 102.987 145.439C102.987 144.798 102.466 144.238 101.785 144.238C101.305 144.278 100.824 144.758 100.824 145.479Z" fill="white"/>
<path d="M100.584 148.083C100.624 148.724 101.145 149.204 101.746 149.244C102.347 149.284 102.907 148.804 102.907 148.163C102.907 148.123 102.907 148.083 102.907 148.043C102.907 147.562 102.427 147.081 101.746 147.081C101.305 147.162 100.584 147.642 100.584 148.083Z" fill="white"/>
<path d="M100.104 150.967C100.104 151.448 100.584 151.928 101.265 151.928C101.786 151.888 102.186 151.488 102.226 150.967C102.226 150.246 101.746 149.805 101.265 149.805C100.664 149.765 100.104 150.246 100.104 150.887C100.104 150.887 100.104 150.927 100.104 150.967Z" fill="white"/>
<path d="M89.4482 149.285C89.4482 150.006 89.9289 150.446 90.4095 150.446C91.0504 150.446 91.6112 149.926 91.6112 149.245C91.6112 148.604 91.0905 148.043 90.4095 148.043C89.9289 148.123 89.4482 148.564 89.4482 149.285Z" fill="white"/>
<path d="M89.6885 146.44C89.7285 146.961 90.129 147.362 90.6498 147.402C91.3707 147.402 91.8113 146.921 91.8113 146.44C91.8514 145.84 91.3707 145.279 90.7698 145.279C90.7298 145.279 90.6898 145.279 90.6498 145.279C90.1691 145.239 89.6885 145.72 89.6885 146.44Z" fill="white"/>
<path d="M89.9291 143.357C89.889 143.957 90.3696 144.518 91.0105 144.518C91.0505 144.518 91.0907 144.518 91.1307 144.518C91.6114 144.518 92.092 144.038 92.092 143.357C92.052 142.836 91.6515 142.435 91.1307 142.395C90.3697 142.395 89.9291 142.876 89.9291 143.357Z" fill="white"/>
<path d="M82.0781 160.22C82.5588 166.628 102.706 164.506 106.031 162.343C107.192 161.622 107.914 160.22 107.914 158.537C105.791 159.699 101.985 161.141 96.2976 161.381C89.4082 161.381 84.4414 159.939 82.0781 158.537V160.22Z" fill="#0EA9B2"/>
<path d="M95.1361 136.707C95.1361 136.707 98.2203 136.227 100.824 137.669L100.343 139.791C100.343 139.791 96.7783 138.63 94.415 138.83C94.415 138.83 94.4152 137.388 95.1361 136.707Z" fill="white"/>
<path d="M8.37776 163.945H46.8706C48.8333 163.945 50.0748 162.463 50.3152 160.74C50.5154 160.54 50.5956 160.26 50.5555 160.019L48.8332 139.752C47.6316 139.191 46.3898 138.79 45.1481 138.51C43.7862 138.269 42.6647 137.348 42.1841 136.026V135.786C41.1827 131.821 35.7753 130.579 34.5336 134.304C34.5336 134.785 34.2932 135.305 34.2932 135.786V136.026C34.0529 137.028 33.8126 137.749 33.8126 138.27C33.6524 139.271 33.5723 140.232 33.5723 141.234C33.0916 141.714 32.5708 142.475 32.0902 142.956C31.8899 143.316 31.6496 143.677 31.3693 143.957C30.8886 144.718 30.3678 145.199 29.8871 145.92C29.8871 146.16 29.6469 146.401 29.4066 146.681C28.8859 147.402 28.325 148.043 27.6841 148.644L26.9632 149.405C25.0005 151.648 22.9978 152.85 20.7948 153.37C16.589 153.851 9.69949 154.372 6.4951 160.54L6.25473 160.78C5.69396 162.222 6.89573 163.945 8.37776 163.945Z" fill="#3BB9C3"/>
<path d="M8.37745 163.945H46.8703C48.833 163.945 50.0745 162.463 50.3149 160.74H6.13434C5.65368 162.182 6.89542 163.945 8.37745 163.945Z" fill="#0EA9B2"/>
<path d="M29.3662 146.601C30.0471 147.362 30.8884 147.923 31.8497 148.323C32.3304 148.564 32.8509 148.564 33.0912 148.804L33.572 147.802C33.0913 147.562 32.5706 147.562 32.3302 147.322C31.0885 146.841 30.3677 146.321 29.8469 145.84C29.8469 146.12 29.6065 146.401 29.3662 146.601Z" fill="white"/>
<path d="M31.8496 148.363C31.8496 148.844 32.6105 149.605 33.0912 149.605C33.7721 149.565 34.2928 149.044 34.3329 148.363C34.373 147.723 33.8523 147.162 33.2114 147.122C33.1714 147.122 33.1312 147.122 33.0912 147.122C32.4102 147.162 31.8897 147.683 31.8496 148.363Z" fill="white"/>
<path d="M26.8818 149.325C27.3625 149.805 28.364 150.326 29.6057 150.807C29.9261 151.127 30.3668 151.287 30.8474 151.287L31.0876 150.286C30.6069 150.286 30.3666 150.046 30.0862 150.046C29.165 149.725 28.3239 149.245 27.6029 148.564L26.8818 149.325Z" fill="white"/>
<path d="M29.6057 150.807C29.5656 151.447 30.0863 152.008 30.7271 152.048C30.7672 152.048 30.8074 152.048 30.8474 152.048C31.3281 152.048 31.8488 151.568 31.8488 150.807C31.8488 150.326 31.3681 149.565 30.8474 149.565C30.2065 149.645 29.6858 150.166 29.6057 150.807Z" fill="white"/>
<path d="M30.5273 14.9805C31.8091 12.7374 33.2913 10.6546 35.0537 8.77198C36.776 6.80929 38.7386 5.12694 40.9015 3.72502C43.1847 2.28304 45.6681 1.20154 48.3117 0.600712C51.0354 0.0399433 53.7992 -3.33935e-05 56.523 0.480626L55.5617 4.72639C53.3587 4.0054 51.0355 3.76507 48.7523 3.92529C46.3891 4.08551 44.0659 4.68639 41.943 5.68777C39.6999 6.68914 37.6171 8.01088 35.7345 9.61307C33.8118 11.1752 32.0494 12.9777 30.5273 14.9805Z" fill="#111111"/>
<path d="M108.634 14.9803C107.112 12.9776 105.35 11.1351 103.387 9.57293C101.545 7.97073 99.4617 6.6489 97.1785 5.64752C95.0556 4.64615 92.7324 4.04536 90.3692 3.88514C88.0861 3.72492 85.803 4.00531 83.64 4.68624L82.6387 0.44038C85.3624 -0.0402789 88.1663 0.0398506 90.8499 0.560565C93.4936 1.16139 95.977 2.20284 98.2601 3.68487C100.463 5.12685 102.426 6.8091 104.188 8.73173C105.911 10.6544 107.393 12.7373 108.634 14.9803Z" fill="#111111"/>
<path d="M63.8926 35.7287C60.2076 46.6236 50.5542 53.1525 42.383 50.3887C34.2118 47.5448 30.6069 36.4897 34.372 25.5147C38.0972 14.6197 47.7104 8.0907 55.8816 10.9346C64.0128 13.6984 67.6578 24.8337 63.8926 35.7287Z" fill="white"/>
<path d="M46.3092 51.6707C44.9073 51.6707 43.5054 51.4304 42.1836 50.9097C38.0179 49.5077 34.8935 46.063 33.2913 41.1763C31.7292 36.3697 31.9295 30.722 33.7721 25.3146C36.9364 16.0619 44.4266 9.65308 51.957 9.65308C53.3589 9.65308 54.7609 9.85333 56.0827 10.334C60.2485 11.7359 63.3726 15.1807 64.9748 20.0674C66.537 24.914 66.3769 30.5217 64.4943 35.9292C61.3299 45.1818 53.8395 51.6707 46.3092 51.6707ZM51.957 10.8547C44.9474 10.8547 37.9377 16.9832 34.8935 25.7151C33.1311 30.8422 33.0109 36.2495 34.493 40.7757C35.8949 45.3019 38.819 48.4663 42.5842 49.7481C43.7858 50.1487 45.0276 50.3489 46.2693 50.3489C53.2789 50.3489 60.2884 44.2205 63.3325 35.4885C65.0949 30.3615 65.2151 25.0341 63.7331 20.4278C62.3312 15.9817 59.4073 12.7373 55.6421 11.4555C54.4805 11.055 53.1987 10.8547 51.957 10.8547Z" fill="#111111"/>
<path d="M60.4484 39.5739C58.005 45.2617 52.6377 48.5062 48.472 46.6637C44.3063 44.9012 42.8642 38.8129 45.3075 33.0851C47.7509 27.3973 53.0382 24.1528 57.244 25.9954C61.4498 27.7578 62.8917 33.8461 60.4484 39.5739Z" fill="#93CFC7"/>
<path d="M56.8031 38.0119C55.5213 41.0561 52.7575 42.6582 50.5545 41.777C48.3915 40.8157 47.5905 37.5713 48.8723 34.6072C50.1541 31.563 52.9979 29.9608 55.2009 30.842C57.3639 31.8033 58.0849 35.0478 56.8031 38.0119Z" fill="#111111"/>
<path d="M53.8392 32.0837C52.7577 33.5658 50.9951 34.1265 49.9137 33.3655C48.8322 32.5644 48.8322 30.6818 49.9137 29.1597C50.9951 27.6777 52.7577 27.1169 53.8392 27.958C54.9206 28.679 55.0007 30.6017 53.8392 32.0837Z" fill="white"/>
<path d="M45.2678 47.9457C37.377 45.3021 33.9321 34.6474 37.5371 24.153C39.2194 19.3064 42.1033 15.1006 45.5481 12.5371C41.0219 14.8202 37.0163 19.747 34.8934 25.8353C31.2484 36.2897 34.6932 47.0645 42.584 49.7482C46.8299 51.1501 51.4762 49.9484 55.4016 46.9844C52.1572 48.6266 48.5924 49.1073 45.2678 47.9457Z" fill="#CDCCCC"/>
<path d="M75.2682 35.7287C78.9533 46.6236 88.6064 53.1525 96.7776 50.3887C104.949 47.5448 108.554 36.4897 104.869 25.5147C101.104 14.6197 91.4505 8.0907 83.3193 10.9346C75.1481 13.6984 71.5031 24.8337 75.2682 35.7287Z" fill="white"/>
<path d="M92.8524 51.6707C85.3221 51.6707 77.8319 45.1818 74.6675 35.9292C70.8222 24.7138 74.5874 13.2179 83.079 10.334C84.4009 9.89339 85.8027 9.65308 87.2046 9.65308C94.735 9.65308 102.225 16.0619 105.39 25.3146C109.235 36.53 105.47 48.0257 96.978 50.9097C95.6562 51.3903 94.2543 51.6707 92.8524 51.6707ZM87.2046 10.8547C85.9629 10.8547 84.6812 11.055 83.4796 11.4555C75.6689 14.1392 72.2242 24.9541 75.8692 35.4885C78.8332 44.2205 85.8428 50.3489 92.8524 50.3489C94.0941 50.3489 95.376 50.1487 96.5375 49.7481C104.348 47.0644 107.793 36.2896 104.228 25.7151C101.224 17.0232 94.2142 10.8547 87.2046 10.8547Z" fill="#111111"/>
<path d="M78.7939 39.5739C81.1572 45.2617 86.5246 48.5062 90.7304 46.6637C94.8961 44.9012 96.3381 38.8129 93.8947 33.0851C91.4514 27.3973 86.164 24.1528 81.9582 25.9954C77.7525 27.7578 76.3506 33.8461 78.7939 39.5739Z" fill="#93CFC7"/>
<path d="M82.3585 38.0119C83.6403 41.0561 86.4842 42.6582 88.6071 41.777C90.8502 40.8157 91.5713 37.5713 90.2895 34.6072C89.0078 31.563 86.1638 29.9608 84.0409 30.842C81.7978 31.8033 81.0768 35.0478 82.3585 38.0119Z" fill="#111111"/>
<path d="M85.3228 32.0837C86.4043 33.5658 88.1667 34.1265 89.2481 33.3655C90.3296 32.5644 90.3296 30.6818 89.2481 29.1597C88.1667 27.6777 86.4043 27.1169 85.3228 27.958C84.2413 28.679 84.2413 30.6017 85.3228 32.0837Z" fill="white"/>
<path d="M93.8135 47.9457C101.704 45.302 105.189 34.6474 101.544 24.153C99.942 19.3063 97.1782 15.2207 93.7335 12.6572C98.2998 14.9404 102.145 19.7469 104.228 25.8353C107.793 36.2896 104.348 47.0645 96.4973 49.7481C92.3316 51.2302 87.6852 49.9484 83.6797 46.9843C87.0042 48.6265 90.4889 49.1073 93.8135 47.9457Z" fill="#CDCCCC"/>
<path d="M115.083 18.6255C113.201 18.3852 104.349 16.022 98.9811 16.022C90.5696 16.022 87.4855 16.743 83.5201 17.9046C79.5547 19.0662 77.3115 20.6684 76.1899 20.4681C75.0684 20.2678 71.9042 19.7471 69.9014 19.7471C67.8987 19.7471 64.7743 20.2678 63.6127 20.4681C62.4511 20.6283 60.2081 19.0262 56.2426 17.9046C52.2772 16.743 49.1528 16.022 40.7413 16.022C35.3739 16.022 26.4417 18.3852 24.5191 18.6255C22.5964 18.8659 20.874 19.0261 20.874 19.0261V23.3921C21.9155 23.5524 22.7567 24.3535 22.957 25.3949C23.3575 27.1974 23.678 35.0881 25.6407 39.8547C27.8838 45.3021 31.4487 49.2676 37.6572 51.03C43.8657 52.7925 50.3946 51.5107 54.6004 48.6267C57.7647 46.4638 60.7287 43.2593 62.9718 38.7732C64.6541 35.4086 65.8958 31.8037 66.6168 28.1186C65.8958 27.2775 65.6556 26.0758 66.0561 24.9943C66.5368 23.6325 68.179 23.3921 69.8212 23.3921C71.4635 23.3921 73.1057 23.6325 73.5864 24.9943C73.9869 26.0358 73.7867 27.2374 73.0256 28.1186C73.7466 31.8438 74.9884 35.4086 76.6707 38.7732C78.9137 43.2593 81.8778 46.4638 85.0421 48.6267C89.2879 51.5107 95.8168 52.7524 101.985 51.03C108.154 49.3077 111.759 45.3021 114.002 39.8547C115.964 35.0881 116.165 27.1974 116.565 25.3949C116.966 23.5924 118.488 23.3921 118.488 23.3921V19.0662C118.568 19.0662 116.966 18.8659 115.083 18.6255ZM57.2841 43.7C52.1971 49.4679 44.0658 51.5107 36.896 48.827C29.5259 46.1433 27.5632 39.6143 26.5218 35.4486C25.4804 31.2428 25.0399 23.8728 28.6047 20.9088C32.1696 17.9447 39.5797 17.9447 43.3048 17.7844C47.2302 17.6242 58.7259 18.7858 61.7301 23.7526C64.6941 28.6393 62.2109 38.1323 57.2841 43.7ZM113.281 35.4486C112.239 39.6544 110.317 46.1433 102.907 48.827C95.6968 51.5107 87.6057 49.4679 82.5187 43.7C77.592 38.1323 75.0685 28.6394 78.0726 23.7126C81.0367 18.7458 92.5725 17.5841 96.4979 17.7444C100.223 17.9046 107.633 17.9046 111.198 20.8687C114.763 23.8728 114.322 31.2428 113.281 35.4486Z" fill="#010101"/>
</svg>
