<svg width="50" height="50" viewBox="0 0 50 50" fill="none" xmlns="http://www.w3.org/2000/svg">
<path d="M6.45492 34.8633C6.1533 34.8634 5.8581 34.7763 5.60493 34.6123C5.35176 34.4484 5.15144 34.2147 5.02816 33.9394C3.53643 30.6079 2.90212 26.956 3.18305 23.3165C3.46397 19.677 4.65119 16.1657 6.63652 13.1026C8.62185 10.0394 11.3422 7.52171 14.5496 5.77899C17.757 4.03626 21.3496 3.12389 24.9998 3.125C25.4142 3.125 25.8117 3.28962 26.1047 3.58265C26.3977 3.87567 26.5623 4.2731 26.5623 4.6875V25C26.5624 25.3017 26.4751 25.597 26.311 25.8502C26.1469 26.1034 25.913 26.3036 25.6375 26.4268L7.09261 34.7227C6.89239 34.8141 6.67504 34.862 6.45492 34.8633Z" fill="#225DA9"/>
<path d="M30.6239 6.65816C30.5106 6.63519 30.3936 6.63764 30.2814 6.66534C30.1692 6.69304 30.0645 6.74531 29.9749 6.81836C29.8853 6.89141 29.8131 6.98343 29.7634 7.08779C29.7136 7.19215 29.6877 7.30624 29.6874 7.42184V25C29.6866 25.9047 29.4244 26.7899 28.9324 27.549C28.4404 28.3082 27.7394 28.9091 26.914 29.2793L10.0712 36.8164C9.96679 36.863 9.87389 36.9319 9.79905 37.0184C9.72421 37.1048 9.66925 37.2066 9.63805 37.3166C9.60685 37.4266 9.60017 37.5421 9.61849 37.6549C9.6368 37.7678 9.67966 37.8752 9.74403 37.9697C11.033 39.8655 12.633 41.5298 14.4765 42.8926C17.9691 45.4908 22.2093 46.8879 26.5624 46.875C37.7626 46.875 46.8749 37.7627 46.8749 26.5625C46.8749 16.7529 39.8847 8.54488 30.6239 6.65816Z" fill="#225DA9"/>
</svg>
