<svg width="55" height="55" viewBox="0 0 55 55" fill="none" xmlns="http://www.w3.org/2000/svg">
<path d="M8.59375 34.375L19.7656 23.2031M36.9531 30.0781L46.4062 20.625L36.9531 30.0781ZM24.9219 23.2031L31.7969 30.0781L24.9219 23.2031Z" stroke="#225DA9" stroke-width="3" stroke-linecap="round" stroke-linejoin="round"/>
<path d="M48.9844 20.625C50.4082 20.625 51.5625 19.4707 51.5625 18.0469C51.5625 16.623 50.4082 15.4688 48.9844 15.4688C47.5605 15.4688 46.4062 16.623 46.4062 18.0469C46.4062 19.4707 47.5605 20.625 48.9844 20.625Z" stroke="#225DA9" stroke-width="3" stroke-linecap="round" stroke-linejoin="round"/>
<path d="M34.375 35.2344C35.7989 35.2344 36.9531 34.0801 36.9531 32.6562C36.9531 31.2324 35.7989 30.0781 34.375 30.0781C32.9511 30.0781 31.7969 31.2324 31.7969 32.6562C31.7969 34.0801 32.9511 35.2344 34.375 35.2344Z" stroke="#225DA9" stroke-width="3" stroke-linecap="round" stroke-linejoin="round"/>
<path d="M22.3438 23.2031C23.7676 23.2031 24.9219 22.0489 24.9219 20.625C24.9219 19.2011 23.7676 18.0469 22.3438 18.0469C20.9199 18.0469 19.7656 19.2011 19.7656 20.625C19.7656 22.0489 20.9199 23.2031 22.3438 23.2031Z" stroke="#225DA9" stroke-width="3" stroke-linecap="round" stroke-linejoin="round"/>
<path d="M6.01562 39.5312C7.43948 39.5312 8.59375 38.377 8.59375 36.9531C8.59375 35.5293 7.43948 34.375 6.01562 34.375C4.59177 34.375 3.4375 35.5293 3.4375 36.9531C3.4375 38.377 4.59177 39.5312 6.01562 39.5312Z" stroke="#225DA9" stroke-width="3" stroke-linecap="round" stroke-linejoin="round"/>
</svg>
