<svg width="25" height="25" viewBox="0 0 25 25" fill="none" xmlns="http://www.w3.org/2000/svg">
<path d="M18.6001 2.80127C18.455 2.65619 18.2827 2.54111 18.0931 2.46261C17.9035 2.3841 17.7003 2.34372 17.4951 2.34375H4.60059C4.3042 2.34369 4.0107 2.40202 3.73686 2.51541C3.46302 2.6288 3.2142 2.79504 3.00462 3.00462C2.79504 3.2142 2.6288 3.46302 2.51541 3.73686C2.40202 4.0107 2.34369 4.3042 2.34375 4.60059V20.3994C2.34369 20.6958 2.40202 20.9893 2.51541 21.2631C2.6288 21.537 2.79504 21.7858 3.00462 21.9954C3.2142 22.205 3.46302 22.3712 3.73686 22.4846C4.0107 22.598 4.3042 22.6563 4.60059 22.6562H20.3994C20.9974 22.6544 21.5704 22.4161 21.9932 21.9932C22.4161 21.5704 22.6544 20.9974 22.6562 20.3994V7.50488C22.6563 7.29968 22.6159 7.09648 22.5374 6.90689C22.4589 6.71729 22.3438 6.54502 22.1987 6.3999L18.6001 2.80127ZM12.5 20.3125C11.8819 20.3125 11.2777 20.1292 10.7638 19.7858C10.2499 19.4425 9.8494 18.9544 9.61288 18.3834C9.37635 17.8124 9.31447 17.184 9.43505 16.5778C9.55562 15.9717 9.85325 15.4148 10.2903 14.9778C10.7273 14.5408 11.2842 14.2431 11.8903 14.1225C12.4965 14.002 13.1249 14.0639 13.6959 14.3004C14.2669 14.5369 14.755 14.9374 15.0983 15.4513C15.4417 15.9652 15.625 16.5694 15.625 17.1875C15.6255 17.598 15.545 18.0046 15.3882 18.384C15.2313 18.7634 15.0011 19.1081 14.7109 19.3984C14.4206 19.6886 14.0759 19.9188 13.6965 20.0757C13.3171 20.2325 12.9105 20.313 12.5 20.3125V20.3125ZM14.8438 9.375H5.46875C5.26155 9.375 5.06284 9.29269 4.91632 9.14618C4.76981 8.99966 4.6875 8.80095 4.6875 8.59375V5.46875C4.6875 5.26155 4.76981 5.06284 4.91632 4.91632C5.06284 4.76981 5.26155 4.6875 5.46875 4.6875H14.8438C15.051 4.6875 15.2497 4.76981 15.3962 4.91632C15.5427 5.06284 15.625 5.26155 15.625 5.46875V8.59375C15.625 8.80095 15.5427 8.99966 15.3962 9.14618C15.2497 9.29269 15.051 9.375 14.8438 9.375Z" stroke="white" stroke-width="2" stroke-linecap="round" stroke-linejoin="round"/>
</svg>
