<svg width="254" height="217" viewBox="0 0 254 217" fill="none" xmlns="http://www.w3.org/2000/svg">
<path d="M142.022 183.999C192.152 183.999 232.79 143.387 232.79 93.2894C232.79 43.1916 192.152 2.57935 142.022 2.57935C91.8922 2.57935 51.2539 43.1916 51.2539 93.2894C51.2539 143.387 91.8922 183.999 142.022 183.999Z" fill="white" stroke="#1D1D1B" stroke-width="0.7357" stroke-miterlimit="7.3573"/>
<path d="M94.5513 155.308H76.9888V187.941H94.5513V155.308Z" fill="#170F1C"/>
<path d="M206.36 153.569H188.797V186.202H206.36V153.569Z" fill="#170F1C"/>
<path d="M224.502 84.4214C224.502 84.4214 254.004 92.9418 245.6 116.184L248.034 122.27C248.034 122.27 263.974 107.258 243.745 86.3921C239.456 81.987 232.559 77.6399 221.546 76.2488L224.502 84.4214Z" fill="#010101"/>
<path d="M140.457 135.08C111.244 135.08 83.6547 121.865 65.3388 99.0858C64.5274 98.1004 63.7738 97.0571 62.9623 96.0138C62.7305 95.724 62.5566 95.4342 62.3247 95.1444C61.7451 94.3329 61.1075 93.4635 60.5859 92.652C60.412 92.4201 60.2382 92.1883 60.1223 91.9565C59.4267 90.9132 58.7312 89.8118 58.0936 88.7106C57.9777 88.4787 57.8037 88.2469 57.6878 88.0151C57.1661 87.1456 56.6444 86.2183 56.1227 85.2909L55.6011 84.3634C55.0215 83.3201 54.4999 82.2769 53.9783 81.2336L53.8623 80.9438C53.3986 80.0164 52.935 79.0311 52.5292 78.1037C50.2108 92.5362 51.428 107.316 56.0069 121.169C65.5706 149.86 89.5088 172.407 118.664 180.232L119.707 179.768C120.112 179.595 120.576 179.363 120.982 179.189C121.504 178.957 121.967 178.725 122.489 178.435C122.895 178.261 123.3 178.03 123.706 177.798C124.228 177.566 124.691 177.276 125.213 176.986C125.619 176.754 125.967 176.581 126.372 176.349C126.894 176.059 127.358 175.769 127.879 175.479C128.227 175.247 128.633 175.074 128.981 174.842C129.502 174.552 129.966 174.204 130.488 173.914C130.835 173.682 131.183 173.509 131.531 173.219C132.053 172.871 132.516 172.523 133.038 172.175C133.386 171.944 133.676 171.77 134.023 171.48C134.545 171.074 135.125 170.726 135.646 170.321C135.936 170.147 136.168 169.915 136.458 169.741C137.269 169.161 138.023 168.524 138.834 167.886C152.281 157.047 162.367 142.615 167.873 126.27C167.873 126.212 167.873 126.212 167.931 126.154C168.395 124.821 168.8 123.546 169.148 122.212L169.264 121.865C161.903 130.269 151.47 135.08 140.457 135.08Z" fill="#2BA7DF"/>
<path d="M178.248 97.2888C178.248 126.501 165.033 154.091 142.254 172.407C141.211 173.219 140.167 174.03 139.124 174.783L138.197 175.479C137.385 176.059 136.574 176.638 135.762 177.16C135.473 177.392 135.125 177.566 134.835 177.798C133.734 178.493 132.632 179.247 131.531 179.884L131.241 180.058C130.198 180.696 129.155 181.275 128.111 181.855C127.938 181.913 127.821 182.029 127.706 182.087C169.554 188.752 210.475 165.626 226.298 126.328C226.125 125.806 225.951 125.284 225.777 124.821C225.545 124.241 225.371 123.661 225.139 123.082C224.907 122.444 224.618 121.749 224.328 121.111C224.096 120.531 223.864 119.952 223.632 119.43C223.342 118.793 223.053 118.155 222.763 117.517C222.473 116.938 222.241 116.416 221.951 115.836C221.661 115.199 221.314 114.561 220.966 113.924C220.676 113.402 220.387 112.823 220.097 112.301C219.749 111.663 219.401 111.026 218.995 110.446C218.705 109.924 218.416 109.403 218.068 108.881C217.662 108.244 217.257 107.606 216.851 107.026C216.561 106.563 216.213 106.041 215.923 105.577C215.46 104.882 214.996 104.244 214.532 103.607C214.243 103.201 213.953 102.737 213.663 102.331C213.025 101.404 212.33 100.535 211.634 99.6652C211.518 99.4914 211.402 99.3174 211.228 99.1435C205.896 92.5359 199.694 86.7398 192.797 81.871C191.811 81.1755 190.826 80.48 189.783 79.8424C183.465 75.7851 176.683 72.4812 169.554 70.1048C168.221 69.6411 166.83 69.2354 165.497 68.8297C165.381 68.7717 165.265 68.7716 165.149 68.7136C173.437 75.8429 178.248 86.276 178.248 97.2888Z" fill="#2087C9"/>
<path d="M175.756 9.59274C175.35 9.70866 174.887 9.82464 174.481 9.94057L173.322 10.2884C172.916 10.4043 172.51 10.5202 172.104 10.6941C171.699 10.81 171.293 10.9259 170.945 11.0418L169.728 11.4476C169.322 11.5635 168.974 11.7374 168.569 11.8533L167.352 12.259L166.192 12.6647C165.787 12.8386 165.381 12.9546 165.033 13.1285C164.627 13.3023 164.28 13.4183 163.874 13.5922C163.468 13.7661 163.12 13.9399 162.715 14.1138C162.309 14.2877 161.961 14.4616 161.556 14.6355C161.15 14.8094 160.802 14.9832 160.396 15.1571C159.991 15.331 159.643 15.5048 159.295 15.6787C158.947 15.8526 158.541 16.0844 158.136 16.2583C157.73 16.4322 157.382 16.6061 157.034 16.8379C156.687 17.0698 156.281 17.2437 155.875 17.4756C155.469 17.6495 155.122 17.8813 154.774 18.0552C154.426 18.2291 154.02 18.461 153.615 18.6928C153.209 18.9247 152.919 19.0985 152.571 19.3303C152.224 19.5042 151.818 19.794 151.47 20.0258C151.122 20.2577 150.775 20.4316 150.427 20.6635C150.079 20.8953 149.673 21.1272 149.268 21.417C148.92 21.6489 148.63 21.8227 148.282 22.0545C147.876 22.3443 147.471 22.5762 147.123 22.866L146.253 23.5035C145.848 23.7933 145.384 24.1412 144.978 24.431C144.747 24.6049 144.457 24.7787 144.225 24.9526C143.529 25.4742 142.892 25.996 142.254 26.5177C128.807 37.3565 118.722 51.7888 113.215 68.134C112.752 69.4671 112.346 70.8582 111.94 72.1913C111.882 72.3073 111.882 72.4232 111.824 72.5392C119.011 64.1927 129.445 59.3819 140.457 59.3819C169.67 59.3819 197.318 72.5971 215.576 95.376C216.387 96.4193 217.199 97.4047 217.952 98.448C218.184 98.7958 218.416 99.0856 218.648 99.4333C219.169 100.187 219.749 100.94 220.271 101.752C220.502 102.1 220.734 102.447 220.966 102.795C221.546 103.723 222.125 104.592 222.705 105.519C222.821 105.693 222.937 105.867 223.053 106.099C223.748 107.2 224.386 108.301 224.966 109.461C225.139 109.751 225.313 110.098 225.487 110.388C225.951 111.258 226.356 112.069 226.82 112.938C226.994 113.286 227.168 113.692 227.4 114.04C227.805 114.909 228.269 115.837 228.675 116.764C228.791 117.054 228.907 117.344 229.081 117.633C229.139 117.749 229.197 117.807 229.197 117.923C242.064 73.8723 220.039 27.0972 177.843 9.01312L177.031 9.18704L175.756 9.59274Z" fill="#1F5DA9"/>
<path d="M102.666 97.2888C102.666 68.0761 115.882 40.4864 138.661 22.1706C139.646 21.3591 140.689 20.6056 141.674 19.8521L142.37 19.3304C143.355 18.5768 144.399 17.8813 145.442 17.1858C145.616 17.0699 145.79 16.9539 145.963 16.838C146.891 16.2004 147.876 15.6209 148.804 15.0412C149.036 14.9253 149.209 14.8094 149.441 14.6355C150.484 13.998 151.586 13.3603 152.687 12.7807L153.383 12.3749C154.426 11.7953 155.469 11.2736 156.513 10.752L156.86 10.5782C158.02 10.0566 159.121 9.47684 160.28 9.01314L161.092 8.66546C162.251 8.1438 163.41 7.68011 164.569 7.21642L164.917 7.10052C166.018 6.69479 167.119 6.289 168.279 5.88327L168.743 5.70936C148.108 -0.608467 125.909 0.608727 106.086 9.18706C81.1624 19.9679 61.977 41.9354 54.6738 68.0182C54.8477 68.5398 55.0796 69.1195 55.2534 69.6411C55.4273 70.1628 55.6592 70.8003 55.8911 71.3219C56.1809 72.0175 56.4127 72.6551 56.7025 73.3506C56.9343 73.9302 57.1663 74.452 57.3981 75.0316C57.6879 75.7271 58.0358 76.3647 58.3256 77.0602C58.5574 77.5819 58.7892 78.1035 59.079 78.6252C59.4267 79.3207 59.7747 79.9583 60.1225 80.6538C60.4123 81.1755 60.6441 81.6972 60.9339 82.1609C61.2816 82.8564 61.6874 83.494 62.0931 84.1896C62.3829 84.6533 62.6147 85.1169 62.9045 85.5806C63.3102 86.2761 63.7738 86.9717 64.2375 87.6673C64.5273 88.073 64.7594 88.5367 65.0492 88.9424C65.5708 89.6959 66.0923 90.4494 66.614 91.145C66.8458 91.4927 67.0779 91.8404 67.3677 92.1882C68.1791 93.2894 68.9904 94.3327 69.8019 95.376C80.6407 108.823 95.0733 118.909 111.419 124.415C112.752 124.879 114.143 125.284 115.476 125.69L115.823 125.806C107.477 118.735 102.666 108.302 102.666 97.2888Z" fill="#217CC1"/>
<path d="M105.971 210.43C105.333 219.124 77.9753 216.226 73.4543 213.328C71.8313 212.343 70.9037 210.43 70.9037 208.17C70.5559 204.286 71.8893 199.475 73.1644 195.592C74.7874 189.448 74.4395 189.448 75.7147 185.275C75.7147 185.275 75.3669 178.203 84.4089 175.595C93.451 172.987 96.9866 190.086 98.5515 193.679C99.8267 196.577 105.333 200.751 105.971 208.17V210.43Z" fill="#3BB9C3"/>
<path d="M79.5395 190.781L78.9019 189.796C79.2496 189.448 87.2484 184.29 94.0299 187.536L93.6821 188.521C87.3063 185.971 79.5395 190.781 79.5395 190.781Z" fill="white"/>
<path d="M80.1769 198.49L79.5396 197.505C79.8873 197.157 87.8859 191.998 95.0151 194.954L94.3775 196.229C87.9438 193.679 80.5247 198.548 80.1769 198.49Z" fill="white"/>
<path d="M79.8864 194.664L79.249 193.679C79.5968 193.331 87.5953 188.173 94.3768 191.129L94.0293 192.404C87.5955 189.854 79.8864 194.664 79.8864 194.664Z" fill="white"/>
<path d="M80.5245 190.433C80.5245 191.418 79.8871 192.056 79.2496 192.056C78.3801 192.056 77.6265 191.36 77.6265 190.433C77.6265 189.506 78.3222 188.81 79.2496 188.81C79.8871 188.868 80.5245 189.506 80.5245 190.433Z" fill="white"/>
<path d="M80.8724 194.027C80.8144 194.897 80.119 195.592 79.2496 195.65C78.4381 195.708 77.6844 195.07 77.6265 194.201C77.6265 194.143 77.6265 194.085 77.6265 194.027C77.6265 193.39 78.2642 192.752 79.2496 192.752C79.8871 192.694 80.8724 193.39 80.8724 194.027Z" fill="white"/>
<path d="M81.5094 197.852C81.5094 198.49 80.8717 199.128 79.8863 199.128C79.1908 199.07 78.6693 198.548 78.6113 197.852C78.6113 196.867 79.2487 196.229 79.8863 196.229C80.6978 196.171 81.4515 196.809 81.5094 197.678C81.5094 197.736 81.5094 197.794 81.5094 197.852Z" fill="white"/>
<path d="M95.9996 195.592C95.9996 196.577 95.362 197.215 94.7244 197.215C93.855 197.215 93.1016 196.519 93.1016 195.592C93.1016 194.722 93.797 193.969 94.7244 193.969C95.362 194.027 95.9996 194.664 95.9996 195.592Z" fill="white"/>
<path d="M95.6527 191.767C95.5948 192.462 95.073 192.984 94.3774 193.042C93.3921 193.042 92.7546 192.404 92.7546 191.767C92.6967 190.955 93.3343 190.202 94.2037 190.144C94.2616 190.144 94.3195 190.144 94.3774 190.144C95.015 190.144 95.6527 190.781 95.6527 191.767Z" fill="white"/>
<path d="M95.362 187.535C95.4199 188.347 94.7823 189.1 93.9129 189.158C93.8549 189.158 93.7971 189.158 93.7391 189.158C93.1016 189.158 92.4639 188.521 92.4639 187.535C92.5218 186.84 93.0436 186.318 93.7391 186.26C94.6665 186.26 95.362 186.898 95.362 187.535Z" fill="white"/>
<path d="M105.971 210.43C105.333 219.124 77.9754 216.226 73.4543 213.328C71.8314 212.343 70.9038 210.43 70.9038 208.17C73.8019 209.793 78.9606 211.705 86.6695 212.053C96.0013 212.053 102.783 210.14 105.971 208.17V210.43Z" fill="#0EA9B2"/>
<path d="M88.2335 178.493C88.2335 178.493 84.0601 177.856 80.5244 179.768L81.162 182.666C81.162 182.666 85.9728 181.044 89.2187 181.391C89.2187 181.449 89.2188 179.479 88.2335 178.493Z" fill="white"/>
<path d="M176.567 210.256C177.204 218.951 204.562 216.053 209.083 213.155C210.706 212.169 211.634 210.256 211.634 207.996C211.981 204.112 210.648 199.302 209.373 195.418C207.75 189.274 208.098 189.274 206.823 185.101C206.823 185.101 207.17 178.03 198.128 175.421C189.086 172.813 185.551 189.912 183.986 193.505C182.711 196.404 177.204 200.577 176.567 207.996V210.256Z" fill="#3BB9C3"/>
<path d="M202.941 190.607L203.578 189.622C203.23 189.274 195.232 184.115 188.45 187.361L188.798 188.346C195.232 185.738 202.941 190.607 202.941 190.607Z" fill="white"/>
<path d="M202.303 198.316L202.94 197.33C202.592 196.983 194.594 191.824 187.464 194.78L188.102 196.055C194.594 193.505 202.013 198.316 202.303 198.316Z" fill="white"/>
<path d="M202.65 194.433L203.288 193.448C202.94 193.1 194.941 187.941 188.16 190.839L188.507 192.114C194.883 189.622 202.65 194.433 202.65 194.433Z" fill="white"/>
<path d="M201.955 190.259C201.955 191.245 202.593 191.882 203.23 191.882C204.1 191.882 204.853 191.187 204.853 190.259C204.853 189.39 204.158 188.636 203.23 188.636C202.593 188.636 201.955 189.274 201.955 190.259Z" fill="white"/>
<path d="M201.665 193.795C201.723 194.664 202.419 195.36 203.288 195.418C204.1 195.476 204.853 194.838 204.911 193.969C204.911 193.911 204.911 193.853 204.911 193.795C204.911 193.157 204.273 192.52 203.288 192.52C202.651 192.52 201.665 193.157 201.665 193.795Z" fill="white"/>
<path d="M201.027 197.679C201.027 198.316 201.665 198.954 202.65 198.954C203.346 198.896 203.867 198.374 203.925 197.679C203.925 196.693 203.288 196.056 202.65 196.056C201.839 195.998 201.085 196.635 201.027 197.505C201.027 197.563 201.027 197.621 201.027 197.679Z" fill="white"/>
<path d="M186.537 195.418C186.537 196.403 187.175 197.041 187.812 197.041C188.682 197.041 189.435 196.345 189.435 195.418C189.435 194.549 188.74 193.795 187.812 193.795C187.175 193.795 186.537 194.433 186.537 195.418Z" fill="white"/>
<path d="M186.826 191.534C186.884 192.23 187.406 192.752 188.101 192.81C189.087 192.81 189.724 192.172 189.724 191.534C189.782 190.723 189.145 189.969 188.275 189.911C188.217 189.911 188.159 189.911 188.101 189.911C187.464 189.911 186.826 190.607 186.826 191.534Z" fill="white"/>
<path d="M187.174 187.362C187.116 188.173 187.754 188.927 188.623 188.985C188.681 188.985 188.739 188.985 188.797 188.985C189.435 188.985 190.072 188.347 190.072 187.362C190.014 186.666 189.493 186.144 188.797 186.086C187.812 186.086 187.174 186.724 187.174 187.362Z" fill="white"/>
<path d="M176.567 210.257C177.204 218.951 204.562 216.053 209.083 213.155C210.706 212.169 211.634 210.256 211.634 207.996C208.736 209.619 203.577 211.532 195.868 211.879C186.536 211.879 179.755 209.967 176.567 207.996V210.257Z" fill="#0EA9B2"/>
<path d="M194.245 178.319C194.245 178.319 198.418 177.682 201.954 179.595L201.316 182.493C201.316 182.493 196.506 180.87 193.26 181.217C193.26 181.217 193.26 179.305 194.245 178.319Z" fill="white"/>
<path d="M191.116 35.9656C185.899 20.5478 172.22 11.332 160.686 15.3314C149.151 19.2727 143.993 35.0383 149.325 50.3982C150.079 52.6587 151.064 54.8032 152.223 56.8318C152.397 57.1216 160.628 54.8611 164.221 54.2235C166.887 53.7019 169.554 53.4121 172.278 53.2382L172.858 53.1803C173.437 53.1224 173.959 53.1223 174.539 53.1223H175.35H176.683C177.61 53.1223 178.596 53.1224 179.465 53.1803C182.363 53.2963 185.088 53.5281 187.522 53.8759C189.029 54.1077 190.42 54.2815 191.695 54.5134C191.695 54.5713 191.637 54.6873 191.637 54.7453H191.695L192.565 54.6873C192.565 54.5134 192.622 54.3975 192.68 54.2816C193.724 48.7172 193.318 42.2834 191.116 35.9656Z" fill="white"/>
<path d="M179.523 53.1799C178.596 53.1799 177.668 53.1799 176.683 53.1799H175.35H174.539C174.017 53.1799 173.437 53.2377 172.858 53.2377L172.278 53.2958C169.554 53.4696 166.887 53.7594 164.221 54.2811L164.047 54.1072C161.671 52.0785 159.758 49.4702 158.541 46.5721C155.121 38.4575 157.092 29.8793 163.12 27.3869C169.032 24.8366 176.567 29.4155 179.987 37.4142C182.421 43.2103 182.132 49.2964 179.523 53.1799Z" fill="#93CFC7"/>
<path d="M163.698 44.312C165.495 48.6012 169.437 50.9196 172.567 49.6445C175.639 48.3113 176.74 43.7324 174.943 39.5012C173.146 35.212 169.147 32.8936 165.959 34.1687C162.945 35.5598 161.901 40.1388 163.698 44.312Z" fill="#010101"/>
<path d="M167.873 35.9076C169.38 37.9942 171.873 38.7476 173.438 37.7043C174.945 36.5451 174.945 33.8789 173.438 31.7923C171.931 29.7056 169.438 28.9522 167.873 30.1114C166.366 31.1547 166.25 33.821 167.873 35.9076Z" fill="white"/>
<path d="M191.87 54.1652C191.87 54.2811 191.812 54.455 191.754 54.5709C190.478 54.3391 189.087 54.1072 187.58 53.9333C187.58 53.8753 187.638 53.7594 187.638 53.7015C189.203 47.8474 188.971 40.892 186.653 34.0525C184.335 27.2131 180.161 21.243 175.292 17.6494C176.104 18.0551 176.915 18.5187 177.669 19.0404C177.843 19.1563 178.075 19.3302 178.249 19.4461C178.654 19.7359 179.002 20.0257 179.408 20.3155L179.929 20.7213C179.987 20.7213 179.987 20.7792 179.987 20.7792C180.277 21.0111 180.509 21.2429 180.799 21.4747C181.089 21.7066 181.32 21.9964 181.61 22.2283C185.552 26.2276 188.566 31.0964 190.363 36.4289C191.058 38.3996 191.58 40.3704 191.928 42.457C191.986 42.6888 191.985 42.9206 192.043 43.2104C192.043 43.3843 192.101 43.5582 192.101 43.7321C192.565 47.1518 192.507 50.6875 191.87 54.1652Z" fill="#CDCCCC"/>
<path d="M82.9009 21.5911C83.8862 19.6204 85.1035 17.7656 86.4366 16.0267C87.7118 14.2879 89.1607 12.607 90.7257 11.1C93.8556 7.91209 97.4492 5.18787 101.391 3.10125C102.434 2.57959 103.477 2.11596 104.52 1.71022C105.564 1.30449 106.665 0.956694 107.766 0.666886C110.027 0.145231 112.345 -0.0866727 114.664 0.0292506C116.982 0.203136 119.185 0.840742 121.272 1.94201C123.3 2.8694 125.097 4.26054 126.488 6.05735C124.575 5.12996 122.605 4.43437 120.518 3.97067C118.605 3.56494 116.634 3.44905 114.664 3.56497C110.664 3.85478 106.897 5.24586 103.361 7.04267C99.7096 8.95541 96.2319 11.2159 92.9281 13.6502C89.5084 16.1426 86.3206 18.8669 82.9009 21.5911Z" fill="#111111"/>
<path d="M197.955 21.5331C195.115 18.8089 192.333 16.2007 189.377 13.7663C186.479 11.4478 183.407 9.36112 180.161 7.5643C176.973 5.76749 173.553 4.43443 170.017 3.56501C166.25 2.75354 162.425 2.34781 158.599 2.40577C162.251 0.60896 166.366 -0.14457 170.423 0.2032C174.596 0.435046 178.596 1.76816 182.247 3.6809C185.783 5.6516 188.971 8.25984 191.637 11.3318C193.028 12.8388 194.245 14.4618 195.289 16.1427C196.448 17.8815 197.317 19.6784 197.955 21.5331Z" fill="#111111"/>
<path d="M192.565 54.7451L191.696 54.803H191.638C191.638 54.745 191.696 54.6291 191.696 54.5712H191.753C192.043 54.6291 192.333 54.6871 192.565 54.7451Z" fill="#E73742"/>
<path d="M195.578 54.7453C194.94 54.6294 194.303 54.5134 193.607 54.4555L192.738 54.3396L191.927 54.2235H191.868C190.535 54.0497 189.144 53.8759 187.695 53.76C185.203 53.5281 182.479 53.3541 179.581 53.2382C178.653 53.2382 177.726 53.2382 176.74 53.2382H175.407H174.596C174.074 53.2382 173.495 53.2962 172.915 53.2962L172.335 53.3541C169.611 53.47 166.887 53.7599 164.105 54.1657C160.395 54.6873 156.744 55.5568 153.15 56.658C152.86 56.716 152.628 56.8319 152.339 56.9479C152.049 57.0638 151.759 57.1217 151.469 57.2377C150.947 57.4115 150.426 57.6434 149.904 57.8173" stroke="#111111" stroke-width="1.4715" stroke-miterlimit="7.3573"/>
<path d="M191.985 35.6757C187.522 22.5764 176.915 13.4765 166.25 13.4765C164.279 13.4765 162.308 13.7663 160.454 14.4618C154.542 16.4905 150.137 21.3592 147.876 28.1987C145.674 35.0961 145.848 43.0369 148.514 50.6298C149.267 52.8904 150.253 55.0349 151.412 57.1215C151.702 57.0056 151.991 56.8897 152.281 56.8317C152.455 57.1215 153.267 56.8317 153.093 56.5419C151.933 54.4553 150.948 52.3107 150.137 50.0502C147.644 42.805 147.47 35.212 149.557 28.7203C151.586 22.4025 155.643 17.8236 160.976 16.0268C162.656 15.4471 164.453 15.1573 166.192 15.1573C170.133 15.1573 174.017 16.4905 177.61 18.9248C177.784 19.0408 178.016 19.1567 178.19 19.3305C178.596 19.6204 178.943 19.8522 179.349 20.2C179.523 20.3159 179.697 20.4898 179.871 20.6057C179.929 20.6057 179.929 20.6637 179.929 20.6637C180.219 20.8955 180.45 21.1274 180.74 21.3592C181.03 21.5911 181.262 21.8809 181.552 22.1127C185.493 26.0541 188.507 30.8649 190.304 36.1394C190.999 38.1681 191.521 40.2547 191.869 42.3413C191.927 42.5731 191.927 42.805 191.985 43.0948C191.985 43.2687 192.043 43.4427 192.043 43.6166C192.506 47.0943 192.391 50.6298 191.753 54.1075C191.753 54.2235 191.695 54.3973 191.695 54.5133C191.695 54.5712 192.565 54.6872 192.565 54.6872C192.565 54.5133 192.622 54.3974 192.68 54.2815L193.55 54.3974C194.651 48.4853 194.072 41.9356 191.985 35.6757Z" fill="#111111"/>
<path d="M90.263 54.281C90.321 54.4549 90.3208 54.5708 90.3788 54.6867L91.2482 54.7448H91.3062C91.3062 54.6868 91.2482 54.5708 91.2482 54.5128C92.5234 54.281 93.9146 54.0492 95.4216 53.8753C97.8559 53.5276 100.58 53.2957 103.478 53.1798C104.406 53.1219 105.333 53.1218 106.26 53.1218H107.594H108.405C108.927 53.1218 109.506 53.1798 110.086 53.1798L110.665 53.2377C113.39 53.4116 116.056 53.7014 118.722 54.223C122.316 54.8606 130.546 57.1211 130.72 56.8313C131.879 54.7447 132.865 52.6002 133.618 50.3976C138.951 35.0378 133.792 19.2143 122.258 15.3308C110.723 11.3315 97.1023 20.6053 91.8278 35.9651C89.6253 42.2829 89.2197 48.7167 90.263 54.281Z" fill="white"/>
<path d="M103.42 53.1799C104.347 53.1799 105.275 53.1799 106.202 53.1799H107.535H108.346C108.868 53.1799 109.448 53.2377 110.027 53.2377L110.607 53.2958C113.331 53.4696 115.998 53.7594 118.664 54.2811L118.838 54.1072C121.214 52.0785 123.127 49.4702 124.344 46.5721C127.764 38.4575 125.793 29.8793 119.765 27.3869C113.853 24.8366 106.318 29.4155 102.898 37.4142C100.464 43.2103 100.811 49.2964 103.42 53.1799Z" fill="#93CFC7"/>
<path d="M119.243 44.312C117.446 48.6012 113.504 50.9196 110.374 49.6445C107.302 48.3113 106.201 43.7324 107.998 39.5012C109.795 35.212 113.794 32.8936 116.982 34.1687C119.996 35.5598 121.039 40.1388 119.243 44.312Z" fill="#010101"/>
<path d="M115.069 35.9076C113.562 37.9942 111.07 38.7476 109.505 37.7043C107.998 36.5451 107.998 33.8789 109.505 31.7923C111.012 29.7056 113.504 28.9522 115.069 30.1114C116.576 31.1547 116.692 33.821 115.069 35.9076Z" fill="white"/>
<path d="M91.0736 54.1652C91.0736 54.2811 91.1314 54.455 91.1894 54.5709C92.4645 54.3391 93.8557 54.1072 95.3627 53.9333L95.3047 53.7015C93.7398 47.8474 93.9717 40.892 96.2902 34.0525C98.6086 27.2131 102.782 21.243 107.651 17.6494C106.839 18.0551 106.028 18.5187 105.274 19.0404C105.1 19.1563 104.869 19.3302 104.695 19.4461C104.289 19.7359 103.941 20.0257 103.535 20.3155L103.014 20.7213C102.956 20.7213 102.956 20.7792 102.956 20.7792C102.666 21.0111 102.434 21.2429 102.144 21.4747C101.855 21.7066 101.622 21.9964 101.333 22.2283C97.3913 26.2276 94.3775 31.0964 92.5807 36.4289C91.8852 38.3996 91.3634 40.3704 91.0156 42.457C90.9577 42.6888 90.9575 42.9206 90.8996 43.2104C90.8996 43.3843 90.8418 43.5582 90.8418 43.7321C90.3781 47.1518 90.4361 50.6875 91.0736 54.1652Z" fill="#CDCCCC"/>
<path d="M90.3203 54.7451L91.1897 54.803H91.2478C91.2478 54.745 91.1897 54.6291 91.1897 54.5712H91.132C90.9002 54.6291 90.6101 54.6871 90.3203 54.7451Z" fill="#E73742"/>
<path d="M133.154 57.7012C132.632 57.4693 132.111 57.2954 131.589 57.1216C131.299 57.0056 131.009 56.8897 130.719 56.8317C130.43 56.7158 130.198 56.6579 129.908 56.5419C126.314 55.3827 122.663 54.5714 118.953 54.0497C116.171 53.644 113.389 53.412 110.723 53.2381L110.143 53.1803C109.563 53.1803 109.042 53.1223 108.462 53.1223H107.651H106.318C105.39 53.1223 104.405 53.1223 103.477 53.1223C100.579 53.1802 97.8552 53.354 95.3628 53.6439C93.9138 53.7598 92.4646 53.9337 91.1895 54.1076H91.1317L90.32 54.2235L89.4506 54.3395C88.7551 54.4554 88.1176 54.5714 87.48 54.6293" stroke="#111111" stroke-width="1.4715" stroke-miterlimit="7.3573"/>
<path d="M89.3342 54.3974L90.2036 54.2815C90.2616 54.4553 90.2614 54.5712 90.3194 54.6872C90.3194 54.6872 91.1888 54.5712 91.1888 54.5133C91.1888 54.3973 91.1311 54.2235 91.1311 54.1075C90.4935 50.6298 90.3776 47.0943 90.8413 43.6166C90.8413 43.4427 90.899 43.2687 90.899 43.0948C90.957 42.863 90.9571 42.6311 91.015 42.3413C91.3628 40.2547 91.8846 38.1681 92.5801 36.1394C94.3769 30.8649 97.3907 26.0541 101.332 22.1127C101.622 21.8229 101.854 21.5911 102.144 21.3592C102.434 21.1274 102.665 20.8955 102.955 20.6637C102.955 20.6057 103.013 20.6057 103.013 20.6057C103.187 20.4318 103.361 20.3159 103.535 20.2C103.883 19.9102 104.288 19.6204 104.694 19.3305C104.868 19.2146 105.1 19.0408 105.274 18.9248C108.867 16.4905 112.751 15.1573 116.692 15.1573C118.489 15.1573 120.228 15.4471 121.908 16.0268C127.241 17.8236 131.356 22.4025 133.327 28.7203C135.414 35.212 135.24 42.7471 132.747 50.0502C131.994 52.3107 130.951 54.4553 129.791 56.5419C129.617 56.8317 130.429 57.1215 130.603 56.8317C130.893 56.9476 131.182 57.0056 131.472 57.1215C132.631 55.0349 133.559 52.8904 134.37 50.6298C137.036 42.9789 137.21 35.0382 135.008 28.1987C132.747 21.3013 128.342 16.4325 122.43 14.4618C120.576 13.8242 118.605 13.4765 116.634 13.4765C105.969 13.4765 95.362 22.5764 90.899 35.6757C88.8124 41.9356 88.2909 48.4853 89.3342 54.3974Z" fill="#111111"/>
<path d="M13.1152 68.018L27.4896 61.9901C27.8953 61.8162 28.1273 61.2944 27.9535 60.8887C27.7796 60.483 27.2577 60.2512 26.852 60.4251L12.4776 66.4531C12.0718 66.627 11.8401 67.1486 12.014 67.5543C12.1879 67.96 12.6515 68.1919 13.1152 68.018Z" fill="#2B2B2B"/>
<path d="M9.34766 95.0864L15.3756 109.519L9.34766 95.0864Z" fill="#4F4F4E"/>
<path d="M19.259 107.838C18.6794 108.359 18.0997 108.823 17.4622 109.287C17.3462 109.403 17.1722 109.519 17.0563 109.635L16.7085 108.765C16.7665 108.649 16.7666 108.533 16.8245 108.417C17.2882 107.316 17.578 106.157 17.694 104.998C17.694 104.708 17.752 104.418 17.752 104.128L19.259 107.838Z" fill="#4F4F4E"/>
<path d="M64.0057 128.704L36.8218 140.065C34.3294 141.108 31.4313 140.818 29.2287 139.253C28.9969 139.137 28.8229 138.963 28.5911 138.79C27.6057 137.978 26.8523 136.935 26.3306 135.776C26.2727 135.66 26.2729 135.602 26.2149 135.486L16.0716 111.2L15.8975 110.794C16.1874 110.62 16.6512 110.33 17.1728 109.983L16.9988 109.635C17.1726 109.519 17.2887 109.403 17.4046 109.287C18.0422 108.823 18.6219 108.36 19.2015 107.838L17.6944 104.186C17.7524 103.259 17.6945 102.39 17.5206 101.52C17.3468 100.361 16.9408 99.2017 16.4191 98.1584C16.2453 97.8686 16.1294 97.5788 15.9556 97.347C15.8396 97.0572 15.6658 96.8253 15.434 96.5935L15.2022 96.1878C15.0863 96.0718 14.9703 95.9558 14.9124 95.8399C14.6805 95.6081 14.4486 95.4342 14.2167 95.1444C14.0428 94.9705 13.8689 94.7966 13.6371 94.6807C12.8256 94.1011 11.8404 93.6375 10.855 93.4636C10.6232 93.4056 10.3912 93.4056 10.1594 93.4056C9.63774 93.4056 9.11597 93.4055 8.59432 93.5215L0.595719 74.3941C0.595719 74.3361 0.5377 74.3362 0.5377 74.2782V74.2202C0.5377 74.1622 0.479682 74.1044 0.479682 74.0464C-0.96936 70.0471 1.00145 65.584 4.94284 63.9031L32.1268 52.5426C36.2421 50.8617 40.8791 52.7744 42.6179 56.8317L68.1791 118.213C69.9759 122.271 68.063 126.965 64.0057 128.704Z" fill="#4F4F4E"/>
<path d="M10.2172 93.3475C9.69554 93.3475 9.17377 93.3476 8.65211 93.4635L0.595497 74.2201V74.1622C0.595497 74.1043 0.537479 74.0463 0.537479 73.9883C-0.273984 71.9017 -0.158061 69.5253 0.827287 67.4966C0.769326 67.6705 0.769269 67.8444 0.769269 68.0182C0.595384 69.4093 0.827231 70.7425 1.34889 72.0177L10.2172 93.3475Z" fill="#2B2B2B"/>
<path d="M16.9988 109.635C16.709 109.809 16.4194 110.04 16.0716 110.156C16.0136 110.156 16.0135 110.214 15.9556 110.214C16.2454 109.751 16.4194 109.229 16.6512 108.765L16.9988 109.635Z" fill="#2B2B2B"/>
<path d="M68.6998 122.56C68.2361 125.227 66.4392 127.487 63.9468 128.53L36.7629 139.891C34.3864 140.876 31.6042 140.644 29.4596 139.253C29.2278 139.137 28.9962 138.963 28.8223 138.79C28.5325 138.616 28.3005 138.384 28.0686 138.152C27.3731 137.456 26.8515 136.703 26.4458 135.833C26.3878 135.718 26.3877 135.66 26.3298 135.544L16.1865 111.258L16.0127 110.852C16.3025 110.678 16.766 110.388 17.2877 110.04L17.5198 110.62L27.0254 133.457C27.7789 135.312 29.2279 136.819 31.0247 137.63C31.4884 137.862 31.8941 138.036 32.4157 138.152C34.0966 138.616 35.8936 138.5 37.5165 137.804L37.9221 137.63L46.0367 134.269L64.7585 126.444C66.4394 125.632 67.8304 124.241 68.6998 122.56Z" fill="#2B2B2B"/>
<path d="M62.4408 116.242L38.3867 126.27L37.2275 126.792L34.0396 128.125L28.649 130.385L27.6638 128.067L27.258 127.139L19.6649 108.997L19.3751 108.244L19.2014 107.838L17.6943 104.187C17.7523 103.259 17.6944 102.39 17.5205 101.52C17.3466 100.361 16.9407 99.2018 16.419 98.1584C16.2451 97.8686 16.1293 97.5789 15.9554 97.347C15.8395 97.0572 15.6657 96.8254 15.4338 96.5935L15.2021 96.1878C15.0861 96.0719 14.9702 95.9559 14.9123 95.84C14.6804 95.6081 14.4484 95.4343 14.2166 95.1445C14.0427 94.9706 13.8688 94.7967 13.637 94.6807L6.04395 76.4808L39.8358 62.3961L62.4408 116.242Z" fill="#6EABDD"/>
<path d="M39.9515 62.2797L28.6489 130.385L62.4407 116.242L39.9515 62.2797Z" fill="#5C93BC"/>
<path d="M48.7036 114.272C48.4718 115.489 47.1387 117.691 45.5738 120.01C43.4292 123.14 40.8789 126.443 39.4878 128.124C40.8209 126.501 43.4292 123.14 45.5738 120.01C47.0808 117.749 48.4718 115.547 48.7036 114.272Z" fill="#DFDBE7"/>
<path d="M6.2749 122.908C6.39083 123.14 6.50675 123.256 6.56471 123.488C6.7386 123.893 6.85463 124.299 6.97056 124.705C6.85463 124.299 6.7386 123.893 6.56471 123.488C6.50675 123.256 6.39083 123.082 6.2749 122.908Z" fill="#DFDBE7"/>
<path d="M40.6468 126.444C39.8354 126.56 38.6182 126.675 37.2271 126.791C34.3291 127.023 30.7352 127.139 29.1702 127.139C28.9384 127.139 28.7067 127.139 28.4749 127.081C28.4749 127.081 28.7066 127.023 29.1702 126.849C32.0683 125.98 42.7912 122.56 45.1097 120.358C47.8339 117.691 48.3557 115.315 46.385 112.765C44.82 110.852 37.1112 112.069 31.373 113.692C29.9239 114.098 28.4749 114.561 27.0839 115.141C27.3157 114.967 29.4023 113.518 31.7208 111.489C34.445 109.113 37.4588 105.983 37.9225 103.433C38.676 99.5494 36.5894 97.5207 34.155 96.8251C33.5754 96.6512 32.9378 96.5933 32.3581 96.5353C29.2862 96.4774 25.6928 101.056 22.7367 104.824C21.7514 106.041 20.65 107.2 19.4328 108.186C18.6213 108.881 17.8099 109.461 17.1724 109.925C16.6507 110.272 16.1869 110.562 15.8971 110.736C15.6073 110.91 15.4915 110.968 15.4915 110.968C15.4915 110.968 15.6074 110.736 15.7813 110.388L15.3755 109.461L9.34753 95.0284L9.05772 94.3329C8.36218 94.3908 7.72466 94.5646 7.08708 94.7965C3.7253 96.2455 5.69577 101.926 5.11615 104.476C4.47858 107.084 2.27626 113.808 2.45014 118.561C2.45014 118.561 1.52253 129.516 15.2594 138.326C15.2594 138.326 19.4327 140.238 28.6486 138.731H28.7647C29.866 138.558 31.083 138.326 32.3581 138.036C32.7059 137.978 33.0539 137.862 33.4596 137.804C45.9214 134.674 47.8921 131.544 47.0806 128.762C46.3271 125.98 43.5449 126.038 40.6468 126.444Z" fill="white"/>
<path d="M16.4186 104.94C16.4186 105.751 16.3027 106.563 16.1288 107.374L11.0283 95.1442C11.8398 95.3181 12.6512 95.7819 13.2888 96.3615C13.4627 96.4774 13.6944 96.6512 13.8104 96.8251C13.9263 96.941 13.9845 97.0569 14.0424 97.1149L14.2742 97.4627C14.3902 97.5786 14.4481 97.6945 14.564 97.7525C14.68 97.8105 14.7379 97.9844 14.7958 98.1003C14.9697 98.3322 15.0278 98.5639 15.2017 98.7378C16.0711 100.709 16.5346 102.795 16.4186 104.94Z" fill="#4F4F4E"/>
<path d="M31.9538 110.388L31.722 110.562C30.9685 111.258 30.0989 112.011 29.2295 112.649C28.3601 113.286 27.4906 113.982 26.6212 114.619C26.2155 114.909 25.6939 115.257 25.2882 115.605C24.8825 115.895 24.3607 116.242 23.9549 116.532C23.781 116.648 23.7232 116.88 23.8392 117.054C23.9551 117.17 24.0708 117.228 24.2447 117.228H24.3028C24.8244 116.996 25.2882 116.822 25.8098 116.706L27.3169 116.184C28.3602 115.837 29.3454 115.489 30.3887 115.141L31.2001 114.909L31.4322 113.692C29.9832 114.098 28.5339 114.561 27.1428 115.141C27.3747 114.967 29.4613 113.518 31.7798 111.489L31.9538 110.388ZM29.3455 126.328C28.65 126.617 28.0124 126.849 27.3169 127.197C27.2589 127.255 27.143 127.255 27.0851 127.313C27.0271 127.313 27.027 127.371 26.969 127.371C26.7952 127.429 26.6792 127.545 26.6792 127.719C26.6792 127.893 26.8532 128.124 27.0271 128.124H27.0851H27.2008H27.6647C28.0704 128.124 28.534 128.182 28.9977 128.182L29.1715 127.197C28.9396 127.197 28.708 127.197 28.4761 127.139C28.4761 127.139 28.7078 127.081 29.1715 126.907L29.3455 126.328ZM19.434 108.244C18.6226 108.939 17.8112 109.519 17.1736 109.982C16.6519 110.33 16.1881 110.62 15.8983 110.794L15.7245 110.446L15.3187 109.519C15.3187 109.577 15.2607 109.635 15.2607 109.693C15.0288 110.098 14.7971 110.62 14.5073 111.084C14.3914 111.2 14.3913 111.316 14.4493 111.431C14.5072 111.605 14.6812 111.721 14.8551 111.663H14.9131C15.3189 111.547 15.6666 111.374 16.0143 111.258C16.478 111.026 16.8837 110.852 17.3474 110.562L17.985 110.156C18.5646 109.808 19.1442 109.403 19.6658 108.997L19.434 108.244ZM31.9538 110.388L31.722 110.562C30.9685 111.258 30.0989 112.011 29.2295 112.649C28.418 113.344 27.4906 113.982 26.6212 114.619C26.2155 114.909 25.6939 115.257 25.2882 115.605C24.8825 115.895 24.3607 116.242 23.9549 116.532C23.781 116.648 23.7232 116.88 23.8392 117.054C23.9551 117.17 24.0708 117.228 24.2447 117.228H24.3028C24.8244 116.996 25.2882 116.822 25.8098 116.706L27.3169 116.184C28.3602 115.837 29.3454 115.489 30.3887 115.141L31.2001 114.909L31.4322 113.692C29.9832 114.098 28.5339 114.561 27.1428 115.141C27.3747 114.967 29.4613 113.518 31.7798 111.489L31.9538 110.388ZM29.3455 126.27C28.65 126.559 28.0124 126.791 27.3169 127.139C27.2589 127.197 27.143 127.197 27.0851 127.255C27.0271 127.255 27.027 127.313 26.969 127.313C26.7952 127.371 26.6792 127.487 26.6792 127.661C26.6792 127.835 26.8532 128.066 27.0271 128.066H27.0851H27.2008H27.6647C28.0704 128.066 28.534 128.124 28.9977 128.124L29.1715 127.139C28.9396 127.139 28.708 127.139 28.4761 127.081C28.4761 127.081 28.7078 127.023 29.1715 126.849L29.3455 126.27ZM19.434 108.244C18.6226 108.939 17.8112 109.519 17.1736 109.982C16.6519 110.33 16.1881 110.62 15.8983 110.794L15.7245 110.446L15.3187 109.519C15.3187 109.577 15.2607 109.635 15.2607 109.693C15.0288 110.098 14.7971 110.62 14.5073 111.084C14.3914 111.2 14.3913 111.316 14.4493 111.431C14.5072 111.605 14.6812 111.721 14.8551 111.663H14.9131C15.3189 111.547 15.6666 111.374 16.0143 111.258C16.478 111.026 16.8837 110.852 17.3474 110.562L17.985 110.156C18.5646 109.808 19.1442 109.403 19.6658 108.997L19.434 108.244ZM47.2556 127.023C46.7919 126.328 46.0964 125.748 45.227 125.458C44.8212 125.284 44.3574 125.226 43.9517 125.284C43.7199 125.284 43.5461 125.284 43.2563 125.342H43.1403L43.0245 125.4L42.7925 125.516C41.5173 125.806 40.2423 126.038 38.9092 126.212L38.3296 126.328C37.2283 126.502 36.0691 126.617 34.9099 126.733C33.5768 126.907 32.3015 127.023 30.9683 127.139C30.6785 127.139 30.4467 127.139 30.1569 127.197H30.215L33.2288 126.27C34.2721 125.922 35.3156 125.632 36.3589 125.342C37.4023 124.995 38.4455 124.705 39.4308 124.415C39.9525 124.299 40.532 124.125 41.0536 123.893C41.5753 123.661 42.097 123.429 42.6187 123.198C43.662 122.734 44.6474 122.096 45.5168 121.343C46.5021 120.589 47.2556 119.662 47.7772 118.561C48.4148 117.401 48.6467 116.126 48.4149 114.851C48.2989 114.214 48.0092 113.576 47.6615 112.996C47.2557 112.475 46.792 112.011 46.2124 111.605C45.9226 111.431 45.6328 111.316 45.343 111.142L45.1109 111.084L44.8791 111.026C44.7053 110.968 44.5894 110.91 44.4156 110.852C43.8359 110.736 43.1983 110.678 42.6187 110.678C41.4595 110.736 40.3583 110.852 39.257 111.026C38.1558 111.257 37.1124 111.547 36.0111 111.837C34.4462 112.301 32.8812 112.823 31.3742 113.402L29.8671 113.982L29.4613 114.156C29.6352 114.04 29.8093 113.924 29.9832 113.808C30.5048 113.46 31.0264 113.054 31.606 112.649L32.7072 111.779C33.1129 111.431 33.5187 111.084 33.9244 110.678C34.1563 110.504 34.3882 110.272 34.5621 110.04L35.1417 109.461C35.9532 108.649 36.7065 107.722 37.2861 106.737C37.9237 105.693 38.3296 104.592 38.6194 103.433C38.9092 102.158 38.7932 100.882 38.2136 99.7231C37.6919 98.5639 36.8226 97.5786 35.7793 96.8831C35.3156 96.5353 34.8519 96.3034 34.3303 96.1295L34.0982 96.0717C33.4606 95.8978 32.7651 95.8398 32.0696 95.8977C31.432 96.0137 30.8526 96.1875 30.273 96.4193C29.6934 96.6512 29.1716 96.941 28.7079 97.3468C27.7225 98.0423 26.8531 98.7957 26.0996 99.7231C25.3461 100.535 24.5927 101.404 23.8972 102.274C23.5494 102.737 23.2015 103.143 22.8537 103.665C22.5059 104.128 22.274 104.592 21.9263 104.998C21.5785 105.403 21.2308 105.867 20.8831 106.215C20.5353 106.621 20.1876 107.026 19.8399 107.374C19.608 107.606 19.4341 107.78 19.2022 108.012C18.6226 108.533 18.0429 108.997 17.4054 109.461C17.2894 109.577 17.1154 109.693 16.9995 109.809L17.1736 110.156C16.6519 110.504 16.1881 110.794 15.8983 110.968L15.7245 110.62L15.3187 109.693C15.3187 109.751 15.2607 109.808 15.2607 109.866C15.0288 110.272 14.7971 110.794 14.5073 111.258C14.3914 111.374 14.3913 111.489 14.4493 111.605C14.5072 111.779 14.6812 111.895 14.8551 111.837H14.9131C15.3189 111.721 15.6666 111.547 16.0143 111.431C16.478 111.2 16.8837 111.026 17.3474 110.736L17.985 110.33C18.5646 109.982 19.1442 109.577 19.6658 109.171C20.0136 108.881 20.3615 108.591 20.7093 108.301C21.115 107.954 21.5205 107.49 21.9263 107.142C22.332 106.737 22.6798 106.273 23.0855 105.867C23.2594 105.635 23.4334 105.403 23.5494 105.172L24.071 104.534C24.4187 104.07 24.7666 103.607 25.0564 103.201C25.752 102.331 26.4473 101.578 27.2008 100.824C27.8964 100.071 28.7079 99.3754 29.5773 98.7958C30.4467 98.2162 31.3162 97.7525 32.2436 97.6366C32.8232 97.5786 33.4608 97.6946 33.9825 97.9264C34.2723 98.0423 34.504 98.1582 34.7359 98.3321C35.5473 98.7958 36.185 99.5494 36.5907 100.419C36.9965 101.288 37.1124 102.216 36.9386 103.143C36.7647 104.128 36.3587 105.056 35.8371 105.925C35.3154 106.795 34.6781 107.664 34.0405 108.475L33.4609 109.055C33.287 109.287 33.0549 109.461 32.939 109.635C32.5912 109.924 32.2436 110.214 31.9538 110.562L31.722 110.736C30.9685 111.431 30.0989 112.185 29.2295 112.823C28.418 113.518 27.4906 114.156 26.6212 114.793C26.2155 115.083 25.6939 115.431 25.2882 115.779C24.8825 116.068 24.3607 116.416 23.9549 116.706C23.781 116.822 23.7232 117.054 23.8392 117.228C23.9551 117.344 24.0708 117.401 24.2447 117.401H24.3028C24.8244 117.17 25.2882 116.996 25.8098 116.88L27.3169 116.358C28.3602 116.01 29.3454 115.663 30.3887 115.315L31.2001 115.083C31.9536 114.851 32.7074 114.619 33.4609 114.445C34.4462 114.098 35.4894 113.866 36.5327 113.634C37.5181 113.344 38.5613 113.17 39.6046 112.938C40.6479 112.822 41.7493 112.649 42.6767 112.649C43.1404 112.649 43.604 112.707 44.0677 112.823C44.1837 112.823 44.2996 112.881 44.3575 112.881L44.5313 112.938L44.7054 112.996C44.8793 113.054 45.0531 113.228 45.227 113.286C45.9225 113.692 46.444 114.445 46.56 115.257C46.6759 116.126 46.5601 116.996 46.1544 117.807C45.6907 118.619 45.1111 119.372 44.4156 120.01C43.6621 120.647 42.7927 121.227 41.8653 121.633C41.4016 121.865 40.9377 122.038 40.532 122.27C40.0683 122.444 39.5466 122.618 39.025 122.792C37.9816 123.14 36.9965 123.488 36.0111 123.893C35.0258 124.299 33.9823 124.589 32.997 124.994L29.9251 126.212L29.3455 126.444C28.65 126.733 28.0124 126.965 27.3169 127.313C27.2589 127.371 27.143 127.371 27.0851 127.429C27.0271 127.429 27.027 127.487 26.969 127.487C26.7952 127.545 26.6792 127.661 26.6792 127.835C26.6792 128.008 26.8532 128.24 27.0271 128.24H27.0851H27.2008H27.6647C28.0704 128.24 28.534 128.298 28.9977 128.298L31.0844 128.356C32.0697 128.356 33.0551 128.356 34.0405 128.298L35.1417 128.24C36.4748 128.182 37.8079 128.066 39.199 127.951C39.8946 127.893 40.5321 127.777 41.2277 127.719L42.2128 127.545L43.2563 127.371L43.4881 127.255L43.5461 127.313C43.6041 127.313 43.6039 127.255 43.6619 127.255C43.7778 127.255 43.8938 127.255 44.0097 127.255C44.2416 127.255 44.4735 127.255 44.7054 127.313C45.1691 127.487 45.5167 127.835 45.7486 128.24C46.0963 128.646 46.2702 129.168 46.2702 129.689C46.2702 130.211 46.2122 130.791 45.9804 131.254C45.5746 132.356 44.7633 133.283 43.7779 133.863C43.2563 134.152 42.7347 134.442 42.1551 134.674L42.0391 134.732L41.923 134.79L41.7493 134.848L41.2857 135.022L40.8218 135.196L40.3002 135.312C39.083 135.717 37.8658 136.065 36.5327 136.471C35.2576 136.761 34.0403 137.108 32.7072 137.398C32.1276 137.514 31.548 137.63 31.0264 137.746C30.3308 137.862 29.6352 138.036 28.8817 138.152C28.5919 138.21 28.302 138.268 28.0122 138.326H27.8965C26.8532 138.5 25.8677 138.615 24.8824 138.789C23.6072 138.963 22.2742 139.079 20.9411 139.137C20.6513 139.195 20.3035 139.195 20.0136 139.195H19.492H19.0282C18.3906 139.195 17.6951 139.137 17.0575 139.021V139.079C15.7244 138.442 2.91501 132.124 2.97297 118.155C2.97297 117.865 2.97297 117.575 2.97297 117.344C3.03093 116.3 3.14691 115.199 3.3208 114.04C3.55264 112.996 3.84245 111.953 4.19022 110.91L4.82757 109.345C4.9435 108.823 5.17557 108.244 5.34945 107.664C5.69722 106.563 5.92896 105.403 6.10284 104.244C6.21877 103.085 6.27678 101.868 6.16086 100.709C6.16086 100.187 6.10279 99.6072 6.04482 99.0276C6.04482 98.7958 6.04482 98.5639 6.04482 98.3321C6.04482 98.1003 6.04494 97.9264 6.16086 97.7525C6.45067 96.941 7.08825 96.2455 7.89971 95.8977C8.3634 95.6659 8.88512 95.55 9.40677 95.492L9.11696 94.7964L8.71112 93.8691C8.18946 93.985 7.6677 94.101 7.14604 94.3328C6.50846 94.6226 5.98692 94.9704 5.52323 95.492C5.00157 95.9557 4.5959 96.5933 4.42201 97.2309C4.30609 97.5787 4.24796 97.9263 4.24796 98.2741C4.18999 98.6219 4.19005 98.9118 4.30597 99.2595C4.30597 99.8392 4.36405 100.419 4.42201 100.94C4.53793 101.984 4.53788 103.085 4.36399 104.128C4.24807 105.172 4.01617 106.273 3.72636 107.316C3.55247 107.896 3.3787 108.417 3.26278 108.881L2.74118 110.562C2.04564 112.649 1.69776 114.793 1.75572 116.996C1.75572 116.996 0.306732 133.283 16.8838 140.006C17.5793 140.122 18.2749 140.238 18.9124 140.296L19.434 140.354H20.0136C20.3035 140.412 20.6513 140.354 20.9991 140.354C22.3322 140.296 23.7233 140.238 25.0564 140.123C26.3895 140.007 27.7226 139.891 29.0557 139.717H29.2295H29.4035C30.6207 139.543 31.8378 139.369 32.997 139.137C33.5187 139.021 34.0404 138.905 34.5621 138.789C35.3735 138.615 36.1271 138.442 36.9386 138.268L37.808 138.036C38.8513 137.804 39.8945 137.514 40.8798 137.166L41.4014 137.051L41.8653 136.877L42.3869 136.761L42.6187 136.645L42.7347 136.587L42.8505 136.529C43.4881 136.239 44.1258 135.949 44.7634 135.543C45.1691 135.254 45.5749 134.964 45.9226 134.616C46.6761 133.921 47.3137 133.051 47.6615 132.124C47.9513 131.37 48.1249 130.559 48.009 129.747C47.9511 128.588 47.7193 127.777 47.2556 127.023ZM19.434 108.244C18.6226 108.939 17.8112 109.519 17.1736 109.982C16.6519 110.33 16.1881 110.62 15.8983 110.794L15.7245 110.446L15.3187 109.519C15.3187 109.577 15.2607 109.635 15.2607 109.693C15.0288 110.098 14.7971 110.62 14.5073 111.084C14.3914 111.2 14.3913 111.316 14.4493 111.431C14.5072 111.605 14.6812 111.721 14.8551 111.663H14.9131C15.3189 111.547 15.6666 111.374 16.0143 111.258C16.478 111.026 16.8837 110.852 17.3474 110.562L17.985 110.156C18.5646 109.808 19.1442 109.403 19.6658 108.997L19.434 108.244ZM29.3455 126.27C28.65 126.559 28.0124 126.791 27.3169 127.139C27.2589 127.197 27.143 127.197 27.0851 127.255C27.0271 127.255 27.027 127.313 26.969 127.313C26.7952 127.371 26.6792 127.487 26.6792 127.661C26.6792 127.835 26.8532 128.066 27.0271 128.066H27.0851H27.2008H27.6647C28.0704 128.066 28.534 128.124 28.9977 128.124L29.1715 127.139C28.9396 127.139 28.708 127.139 28.4761 127.081C28.4761 127.081 28.7078 127.023 29.1715 126.849L29.3455 126.27ZM31.9538 110.388L31.722 110.562C30.9685 111.258 30.0989 112.011 29.2295 112.649C28.418 113.344 27.4906 113.982 26.6212 114.619C26.2155 114.909 25.6939 115.257 25.2882 115.605C24.8825 115.895 24.3607 116.242 23.9549 116.532C23.781 116.648 23.7232 116.88 23.8392 117.054C23.9551 117.17 24.0708 117.228 24.2447 117.228H24.3028C24.8244 116.996 25.2882 116.822 25.8098 116.706L27.3169 116.184C28.3602 115.837 29.3454 115.489 30.3887 115.141L31.2001 114.909L31.4322 113.692C29.9832 114.098 28.5339 114.561 27.1428 115.141C27.3747 114.967 29.4613 113.518 31.7798 111.489L31.9538 110.388Z" fill="#170F1C"/>
<path d="M17.0568 102.621L14.7964 97.1729C15.4919 98.0423 16.0715 99.0276 16.4772 100.071C16.767 100.882 16.9409 101.752 17.0568 102.621Z" fill="#6EABDD"/>
<path d="M17.6936 104.186L17.056 102.621C16.9401 101.752 16.7661 100.882 16.4184 100.071C16.0126 99.0277 15.4331 98.0423 14.7375 97.1729L13.6943 94.6226C13.9262 94.7385 14.1001 94.9123 14.274 95.0862C14.5058 95.318 14.7375 95.492 14.9693 95.7819C15.0273 95.8978 15.1432 96.0716 15.2591 96.1295L15.4912 96.5352C15.6651 96.7671 15.8389 96.999 16.0128 97.2888C16.1867 97.5206 16.3025 97.8105 16.4764 98.1003C16.998 99.2016 17.3458 100.303 17.5776 101.462C17.6935 102.389 17.7516 103.259 17.6936 104.186Z" fill="#6EABDD"/>
<path d="M17.6948 104.187C17.6948 104.477 17.6947 104.766 17.6368 105.056C17.5208 106.215 17.231 107.375 16.7673 108.476C16.7094 108.592 16.7096 108.708 16.6516 108.824L16.4775 108.36C17.0572 106.505 17.231 104.534 17.0572 102.622L17.6948 104.187Z" fill="#4F4F4E"/>
<path d="M16.4772 108.36L16.0717 107.374C16.2456 106.563 16.3615 105.751 16.3615 104.94C16.5354 102.795 16.0716 100.651 15.0862 98.7959C14.9123 98.5641 14.8542 98.3322 14.6804 98.1583C14.6224 98.0423 14.5065 97.9265 14.4486 97.8106C14.3906 97.6947 14.2747 97.5787 14.1588 97.5208L13.927 97.1729C13.8111 97.057 13.7531 96.9411 13.6952 96.8831C13.5213 96.7093 13.3475 96.5353 13.1736 96.4194C12.536 95.8398 11.7823 95.4342 10.9129 95.2023L10.623 94.5067C12.246 94.9124 13.695 95.8398 14.6804 97.1729L16.9411 102.621C17.2309 104.534 17.0568 106.505 16.4772 108.36Z" fill="#4F4F4E"/>
<path d="M14.7973 97.173C13.8119 95.8399 12.3629 94.9124 10.7399 94.5067L10.2764 93.3475C10.5082 93.3475 10.7399 93.3475 10.9717 93.4055C11.9571 93.6373 12.9426 94.0431 13.7541 94.6227L14.7973 97.173Z" fill="#4F4F4E"/>
<path d="M17.1727 109.982C16.651 110.33 16.1872 110.62 15.8974 110.794L15.7236 110.446C16.0134 109.75 16.2452 109.055 16.477 108.359L16.6511 108.823C16.4772 109.345 16.2452 109.808 15.9554 110.272C16.0134 110.272 16.0135 110.214 16.0715 110.214C16.3613 110.04 16.7088 109.866 16.9986 109.693L17.1727 109.982Z" fill="#2B2B2B"/>
<path d="M16.4771 108.36C16.3032 109.055 16.0135 109.751 15.7237 110.446L15.3179 109.519C15.4918 109.055 15.6658 108.65 15.7817 108.186C15.8397 107.954 15.9556 107.664 16.0135 107.432L16.4771 108.36Z" fill="#2B2B2B"/>
<path d="M10.6805 94.5067C10.1589 94.3908 9.57936 94.3328 9.0577 94.3908L8.65186 93.4635C9.17351 93.3476 9.69528 93.3475 10.2169 93.3475L10.6805 94.5067Z" fill="#2B2B2B"/>
<path d="M10.9707 95.1444C10.8548 95.0864 10.7388 95.0864 10.6229 95.0864C10.2172 95.0284 9.75365 95.0284 9.34791 95.0864L9.05811 94.3908C9.57976 94.3329 10.1593 94.3908 10.6809 94.5067L10.9707 95.1444Z" fill="#2B2B2B"/>
<path d="M16.0713 107.374C16.0133 107.664 15.9551 107.896 15.8392 108.128C15.7233 108.591 15.5495 109.055 15.3756 109.461L9.34766 95.0283C9.75339 94.9703 10.2169 94.9703 10.6226 95.0283C10.7386 95.0283 10.8545 95.0862 10.9705 95.0862L16.0713 107.374Z" fill="#2B2B2B"/>
<path d="M144.166 100.187H143.876C128.864 100.187 119.242 95.3181 113.794 91.2607C107.824 86.8557 105.505 82.3926 105.389 82.2767L106.722 81.5812C106.722 81.6391 108.983 85.9282 114.721 90.1594C119.996 94.1008 129.327 98.7378 143.992 98.7958C172.161 98.7378 181.203 81.7551 181.319 81.5812L182.594 82.2767C182.536 82.4506 180.16 86.8557 174.19 91.2607C168.857 95.376 159.236 100.187 144.166 100.187Z" fill="#111111"/>
<path d="M172.685 80.1326C174.134 79.6109 175.641 79.321 177.148 79.321C178.713 79.321 180.22 79.6688 181.611 80.3644C183.06 81.1179 184.219 82.3351 184.915 83.8421C185.494 85.2911 185.668 86.856 185.32 88.421C185.031 86.972 184.509 85.6388 183.813 84.3637C183.118 83.2624 182.132 82.2771 180.973 81.6395C179.698 81.0599 178.365 80.6542 176.974 80.4224C175.583 80.3065 174.134 80.1906 172.685 80.1326Z" fill="#111111"/>
<path d="M115.476 80.1321C114.027 80.1901 112.578 80.3059 111.129 80.4798C109.738 80.7117 108.404 81.1174 107.129 81.6971C105.97 82.3346 104.985 83.262 104.289 84.4212C103.535 85.6964 103.014 87.0295 102.782 88.4785C102.434 86.9715 102.608 85.3487 103.188 83.8996C103.825 82.3926 104.985 81.1754 106.434 80.4219C107.825 79.7264 109.39 79.3786 110.897 79.3786C112.519 79.3206 114.027 79.6105 115.476 80.1321Z" fill="#111111"/>
<path d="M133.211 109.113C134.602 109.866 136.109 110.446 137.616 110.91C139.065 111.373 140.572 111.663 142.079 111.721C143.586 111.779 145.093 111.605 146.542 111.199C148.049 110.678 149.44 109.982 150.832 109.113C149.846 110.446 148.513 111.547 147.006 112.243C145.441 112.938 143.76 113.228 142.021 113.17C138.659 112.996 135.529 111.547 133.211 109.113Z" fill="#111111"/>
<path d="M185.609 81.929C185.725 80.8857 185.725 79.9003 185.667 78.857C185.609 77.8717 185.377 76.9443 184.74 76.4227C184.392 76.1908 183.986 76.075 183.581 76.075C183.117 76.017 182.653 76.017 182.132 76.075C181.088 76.075 180.045 76.1909 179.001 76.1909C179.987 75.7272 180.972 75.4374 182.016 75.2056C182.537 75.0317 183.117 74.9736 183.638 74.9736C184.276 74.9736 184.914 75.2055 185.435 75.5532C185.899 75.959 186.247 76.5386 186.421 77.1182C186.537 77.6978 186.595 78.2775 186.479 78.7992C186.479 79.9584 186.131 81.0016 185.609 81.929Z" fill="#111111"/>
<path d="M98.4337 81.9288C97.912 81.0014 97.5644 79.9581 97.4485 78.8568C97.3905 78.2772 97.4484 77.6976 97.6223 77.176C97.7382 76.5384 98.0861 76.0168 98.6077 75.611C99.1294 75.2633 99.709 75.0314 100.289 75.0314C100.868 75.0314 101.39 75.0893 101.911 75.2632C102.955 75.4951 103.998 75.8428 104.984 76.2485C103.94 76.2485 102.839 76.1326 101.854 76.1326C101.332 76.0747 100.868 76.0747 100.347 76.1326C99.9409 76.1906 99.5351 76.3066 99.1874 76.4805C98.6077 77.0021 98.3179 77.9295 98.2599 78.9148C98.2599 79.9002 98.3757 80.8855 98.4337 81.9288Z" fill="#111111"/>
<path d="M240.846 105.925C238.064 102.1 236.731 97.3467 237.078 92.5938C237.136 91.4346 237.368 90.2753 237.31 89.1161C237.31 87.8989 236.847 86.7976 236.035 85.8702C234.934 84.7689 232.905 85.3485 231.514 86.102C228.384 87.8988 226.471 91.2027 226.413 94.7384C226.471 98.0422 228.21 101.172 229.891 104.07C230.181 104.592 229.543 105.403 229.138 105.751C228.674 106.099 228.036 106.215 227.457 106.099C226.645 104.07 224.849 102.563 222.704 102.215C220.617 101.81 218.357 102.273 216.328 102.969C214.821 103.433 213.43 104.186 212.155 105.171C210.938 106.157 210.126 107.548 209.778 109.113C209.489 110.678 210.068 112.301 211.285 113.402C209.894 114.561 208.387 115.952 208.098 117.691C207.866 119.082 208.271 120.531 209.141 121.691C210.01 122.792 211.054 123.777 212.213 124.647C211.228 125.98 210.126 127.429 210.416 129.11C210.706 130.501 212.039 131.486 213.256 132.24C216.85 134.268 221.023 135.08 225.08 134.558C229.949 133.978 234.586 132.529 238.585 129.573C239.861 131.138 242.063 131.602 244.092 130.964C246.062 130.327 247.57 128.82 248.787 127.139C250.004 125.4 250.815 123.429 251.105 121.285C251.395 119.198 250.989 116.996 249.888 115.199C250.004 112.764 249.54 110.272 248.497 108.012C247.801 106.505 246.816 105.056 245.251 104.418C243.57 103.722 241.715 104.36 240.846 105.925Z" fill="white"/>
<path d="M227.284 105.635C227.342 105.809 227.4 105.925 227.458 106.041V106.099C227.632 106.099 227.806 106.157 227.98 106.157H228.038C227.748 106.041 227.516 105.867 227.284 105.635Z" fill="#DFDBE7"/>
<path d="M227.341 105.635C227.399 105.809 227.457 105.925 227.515 106.041C227.399 105.925 227.341 105.809 227.341 105.635Z" fill="#DFDBE7"/>
<path d="M229.197 105.751C229.139 105.751 229.139 105.751 229.197 105.751C228.792 106.041 228.444 106.157 228.038 106.215C228.444 106.157 228.792 106.041 229.197 105.751C229.139 105.751 229.139 105.751 229.197 105.751Z" fill="#DFDBE7"/>
<path d="M227.341 99.1437C228.037 100.883 228.906 102.506 229.892 104.07C230.181 104.592 229.602 105.346 229.196 105.751C229.138 105.751 229.138 105.751 229.138 105.809C228.79 106.041 228.442 106.157 228.037 106.215C228.732 106.679 229.602 106.969 230.471 106.969C230.645 106.969 230.819 106.911 230.877 106.911C232.268 106.679 233.485 105.52 233.369 104.187C233.311 103.201 232.674 102.332 231.862 101.694C230.587 100.535 229.022 99.6654 227.341 99.1437Z" fill="#DFDBE7"/>
<path d="M225.024 134.558C224.271 134.674 223.575 134.732 222.822 134.732C223.575 134.732 224.271 134.674 225.024 134.558ZM238.587 129.632C239.225 130.327 240.036 130.849 240.964 131.081C240.036 130.791 239.225 130.327 238.587 129.632ZM209.085 121.691C209.085 121.691 209.143 121.691 209.085 121.691C209.143 121.691 209.085 121.691 209.085 121.691Z" fill="#DFDBE7"/>
<path d="M242.353 113.866C242.238 113.866 242.121 113.924 242.179 114.098C242.527 115.373 242.643 116.648 242.585 117.981C242.527 117.807 242.527 117.691 242.527 117.518C241.89 118.677 240.846 119.546 239.629 120.358C235.34 123.082 230.413 124.531 225.371 124.473C224.153 124.473 222.878 124.357 221.661 124.241C216.85 123.545 212.213 121.865 208.04 119.314C208.156 120.126 208.504 120.937 208.967 121.575V121.633H209.026V121.691C209.083 121.691 209.084 121.691 209.084 121.749C209.953 122.85 210.996 123.835 212.155 124.705C211.286 125.864 210.359 127.139 210.359 128.472C210.359 128.704 210.359 128.936 210.417 129.168C210.706 130.559 212.039 131.544 213.257 132.298C216.213 133.921 219.458 134.79 222.82 134.79C223.574 134.79 224.327 134.732 225.023 134.616H225.081C229.949 134.037 234.587 132.588 238.586 129.631V129.69C239.224 130.385 240.035 130.907 240.962 131.139C241.368 131.254 241.832 131.312 242.295 131.312C242.875 131.312 243.513 131.196 244.092 131.023C246.005 130.385 247.57 128.878 248.787 127.197C249.715 125.922 250.352 124.473 250.758 122.966C249.946 124.009 248.671 124.589 247.396 124.647C247.106 124.647 246.816 124.647 246.527 124.531C245.425 124.241 244.498 123.488 243.918 122.502C244.092 121.749 244.15 120.995 244.15 120.242C244.15 117.865 243.339 115.895 242.353 113.866C242.411 113.866 242.353 113.866 242.295 113.866H242.353Z" fill="#DFDBE7"/>
<path d="M241.833 111.026C241.833 111.142 241.833 111.142 241.891 111.2H241.833V111.026C241.775 110.91 241.775 110.794 241.717 110.678C241.601 110.272 241.37 109.577 241.138 108.765C240.848 107.954 240.442 106.853 239.978 105.751C239.515 104.65 238.935 103.317 238.182 101.984C238.008 101.636 237.834 101.288 237.66 100.94C237.544 100.767 237.428 100.593 237.37 100.419L237.254 100.245L237.196 100.071C237.138 100.013 237.08 99.8971 237.022 99.7812C236.964 99.6073 236.849 99.3754 236.791 99.1436C236.733 98.9117 236.617 98.7379 236.501 98.5061C236.385 98.0424 236.269 97.5786 236.153 97.1149C235.979 96.1875 235.921 95.2022 235.979 94.2168C236.037 93.2315 236.211 92.3041 236.385 91.3187C236.617 90.4493 236.733 89.522 236.733 88.5946C236.733 87.7831 236.327 87.0296 235.747 86.5659L235.515 86.392L235.4 86.3341L235.225 86.2182L235.168 86.1602H235.11C235.052 86.1023 235.052 86.1022 234.994 86.1022C234.936 86.1022 234.936 86.0443 234.878 86.0443L234.762 85.9863C234.356 85.8704 234.008 85.8705 233.603 85.9284C232.733 86.1023 231.922 86.508 231.226 87.0296C230.473 87.6093 229.835 88.2468 229.256 89.0003C228.676 89.7538 228.212 90.5654 227.806 91.4348C227.459 92.2462 227.169 93.1157 227.111 94.0431C227.053 94.101 227.053 94.2169 227.053 94.3329V94.9704L227.111 95.2602V95.608C227.169 95.666 227.169 95.7819 227.169 95.8978C227.285 96.1297 227.343 96.3614 227.401 96.5353C227.632 97.4047 227.922 98.2742 228.27 99.0857C228.618 99.8972 228.966 100.709 229.372 101.462C229.603 101.81 229.777 102.216 230.009 102.621C230.125 102.853 230.241 103.027 230.357 103.317C230.415 103.549 230.531 103.781 230.589 104.012C230.647 104.302 230.705 104.65 230.647 104.94C230.647 105.056 230.589 105.114 230.589 105.23C230.589 105.345 230.647 105.114 230.531 105.346V105.403H230.473V105.519H230.415V105.577L230.357 105.693C230.299 105.751 230.241 105.809 230.183 105.867L230.125 105.925H230.067L230.009 106.041C229.719 106.215 229.487 106.331 229.314 106.447C229.198 106.505 229.082 106.505 228.966 106.563C228.85 106.621 228.734 106.621 228.618 106.679C227.864 106.852 227.053 106.968 226.299 107.026C225.604 107.084 224.908 107.142 224.271 107.084C223.17 107.084 222.01 106.91 220.967 106.563C220.272 106.389 219.576 106.041 218.996 105.635C218.822 105.519 218.707 105.403 218.591 105.288L218.475 105.172H218.649C218.823 105.23 218.996 105.288 219.228 105.288C219.866 105.403 220.561 105.461 221.199 105.519C222.068 105.577 223.112 105.577 224.329 105.577C224.966 105.577 225.546 105.519 226.241 105.461C226.879 105.404 227.632 105.23 228.27 105.056C228.328 104.998 228.386 104.998 228.502 104.94C228.618 104.882 228.676 104.882 228.734 104.882C228.85 104.824 228.966 104.708 229.082 104.65L229.024 104.708V104.766L229.082 104.708V104.65C228.966 104.882 229.024 104.708 229.024 104.766V104.708C229.024 104.592 229.024 104.534 228.966 104.418C228.85 104.07 228.734 103.781 228.56 103.491C228.328 103.085 228.154 102.737 227.923 102.389C226.995 100.709 226.241 98.9118 225.72 97.057C225.662 96.8252 225.604 96.6513 225.546 96.3615C225.488 96.2456 225.488 96.0716 225.43 95.9557C225.372 95.8398 225.372 95.6659 225.372 95.55C225.314 94.9704 225.314 94.4488 225.372 93.8691C225.488 92.7679 225.836 91.7246 226.299 90.6813C226.705 89.6959 227.285 88.7685 227.98 87.8991C228.676 87.0296 229.429 86.2761 230.299 85.5806C231.284 84.8851 232.385 84.4213 233.487 84.2475C234.124 84.1315 234.762 84.1895 235.342 84.3633L235.573 84.4794C235.631 84.4794 235.747 84.5373 235.805 84.5953L236.095 84.7112C236.153 84.7112 236.153 84.7112 236.211 84.7692L236.269 84.8271L236.443 84.943L236.501 85.001H236.559L236.617 85.059H236.675L237.022 85.3488C237.486 85.7545 237.834 86.2761 238.124 86.8557C238.413 87.4353 238.529 88.015 238.529 88.6526C238.587 89.1743 238.529 89.7539 238.413 90.2756C238.355 90.7972 238.239 91.2608 238.124 91.7825C237.95 92.7099 237.776 93.6373 237.718 94.4488C237.66 95.3182 237.66 96.1296 237.776 96.999C237.834 97.4048 237.95 97.8105 238.066 98.1583C238.124 98.3321 238.182 98.564 238.24 98.7379C238.298 98.9118 238.355 99.0856 238.471 99.3175C238.529 99.3754 238.529 99.4914 238.587 99.6073L238.645 99.7232L238.703 99.8971C238.819 100.071 238.935 100.245 238.993 100.477C239.167 100.824 239.341 101.172 239.515 101.52C240.094 102.969 240.616 104.302 241.022 105.519C241.369 106.563 241.659 107.606 241.833 108.707C242.007 109.577 242.065 110.33 242.123 110.794V111.142C242.123 111.2 242.123 111.2 242.065 111.258V111.374H242.007L241.833 111.026Z" fill="#170F1C"/>
<path d="M226.82 106.157C226.82 105.925 226.82 105.694 226.762 105.462C226.646 105.23 226.53 105.056 226.414 104.824C226.124 104.418 225.777 104.071 225.313 103.839C224.849 103.607 224.328 103.433 223.806 103.317C223.284 103.201 222.762 103.085 222.183 103.027H221.313L220.908 102.969C220.792 102.969 220.618 102.97 220.502 103.027C219.98 103.027 219.459 103.085 218.879 103.143C218.357 103.259 217.836 103.375 217.314 103.549C216.792 103.665 216.271 103.839 215.749 104.071C214.764 104.476 213.836 104.998 212.967 105.694C212.561 106.041 212.213 106.389 211.866 106.737C211.518 107.085 211.286 107.491 211.112 107.954C210.996 108.186 210.88 108.418 210.823 108.65L210.648 109.287C210.648 109.519 210.59 109.693 210.59 109.925C210.59 110.157 210.648 110.446 210.648 110.62C210.706 111.142 210.822 111.606 210.996 112.127C211.112 112.649 211.344 113.171 211.576 113.692L211.634 113.982C211.692 114.098 211.634 114.214 211.518 114.214C211.518 114.272 211.46 114.272 211.46 114.272C211.228 114.446 210.996 114.62 210.823 114.852C210.649 115.025 210.417 115.257 210.243 115.489C209.837 115.837 209.547 116.301 209.315 116.764L208.968 117.402L208.794 118.098C208.736 118.329 208.736 118.561 208.736 118.735V118.967V119.141C208.736 119.315 208.794 119.373 208.794 119.489C208.852 119.72 208.91 119.952 209.026 120.126C209.142 120.358 209.2 120.59 209.373 120.764C209.489 120.996 209.663 121.169 209.779 121.401L210.301 122.039C210.532 122.271 210.706 122.445 210.88 122.676C211.054 122.908 211.286 123.082 211.46 123.314C211.634 123.546 211.866 123.72 212.097 123.952L212.735 124.589L212.851 124.705C212.967 124.821 212.967 124.995 212.851 125.111C212.793 125.169 212.793 125.169 212.735 125.169C212.271 125.69 211.924 126.328 211.634 127.024C211.344 127.603 211.286 128.241 211.402 128.878C211.46 129.168 211.518 129.458 211.692 129.748V129.806C211.75 129.806 211.692 129.748 211.692 129.806H211.75V129.864L211.808 129.922V129.98C211.866 129.98 211.866 130.095 211.924 130.153C211.982 130.211 212.098 130.385 212.214 130.501C212.735 130.965 213.257 131.371 213.894 131.718C214.532 132.066 215.227 132.356 215.923 132.588C216.619 132.82 217.372 133.052 218.068 133.225C218.763 133.399 219.575 133.515 220.27 133.631C221.024 133.747 221.835 133.805 222.589 133.805C223.284 133.863 224.096 133.863 224.849 133.863H225.429L225.718 133.805H226.066C226.24 133.805 226.414 133.805 226.646 133.747C226.82 133.747 226.994 133.747 227.168 133.689C228.732 133.515 230.24 133.225 231.689 132.82C233.196 132.414 234.587 131.776 235.978 131.023C236.673 130.675 237.311 130.269 237.89 129.806C238.528 129.4 239.166 128.936 239.745 128.415C239.629 128.82 239.398 129.226 239.108 129.516C238.876 129.864 238.586 130.154 238.238 130.385C237.659 130.907 236.963 131.371 236.326 131.776C234.993 132.646 233.543 133.341 231.979 133.921C230.472 134.501 228.906 134.906 227.284 135.196C227.052 135.196 226.878 135.254 226.646 135.254C226.414 135.254 226.24 135.312 226.066 135.37H225.777L225.429 135.428C225.255 135.428 225.023 135.486 224.791 135.486C224.038 135.544 223.168 135.544 222.415 135.544C221.661 135.544 220.734 135.486 219.98 135.428C219.227 135.37 218.299 135.196 217.546 135.022C215.923 134.732 214.3 134.211 212.851 133.399C212.04 132.994 211.344 132.414 210.706 131.776C210.591 131.602 210.417 131.429 210.301 131.197L210.127 130.849L210.069 130.733L210.011 130.675L209.953 130.617V130.501C209.721 130.096 209.605 129.574 209.547 129.11C209.489 128.589 209.547 128.067 209.721 127.603C209.837 127.139 210.069 126.734 210.359 126.386C210.59 125.98 210.88 125.69 211.228 125.401C211.576 125.111 211.924 124.879 212.272 124.705L212.329 125.285C211.982 125.169 211.692 125.053 211.46 124.937C211.17 124.821 210.88 124.647 210.648 124.531C210.417 124.357 210.127 124.183 209.895 124.01C209.663 123.836 209.373 123.604 209.199 123.372C208.678 122.908 208.214 122.387 207.866 121.807C207.519 121.227 207.229 120.59 207.055 119.894C206.997 119.72 206.939 119.546 206.939 119.315V118.793C206.939 118.445 206.939 118.097 207.055 117.75C207.229 117.054 207.518 116.417 207.982 115.837C208.388 115.315 208.91 114.852 209.489 114.504C209.779 114.33 210.069 114.156 210.359 113.982C210.648 113.866 210.996 113.75 211.286 113.692L211.112 114.214C210.011 113.46 209.257 112.359 208.852 111.084C208.678 110.389 208.62 109.693 208.678 109.055C208.736 108.36 208.968 107.664 209.315 107.027C209.605 106.447 209.953 105.868 210.417 105.346C210.88 104.882 211.344 104.419 211.866 104.013C212.387 103.607 212.909 103.317 213.489 103.027C214.01 102.738 214.59 102.448 215.17 102.274C215.807 102.042 216.329 101.868 216.966 101.694C217.604 101.52 218.184 101.462 218.821 101.405C219.459 101.347 220.096 101.346 220.676 101.346C220.85 101.346 220.966 101.405 221.082 101.405C221.197 101.405 221.371 101.404 221.487 101.462C221.777 101.462 222.125 101.52 222.415 101.578C222.994 101.636 223.632 101.81 224.211 101.984C224.849 102.216 225.371 102.506 225.893 102.854C226.472 103.201 226.936 103.723 227.226 104.36C227.341 104.65 227.457 104.998 227.515 105.288C227.573 105.636 227.573 105.983 227.457 106.273C227.399 106.447 227.226 106.563 227.052 106.563C226.878 106.447 226.762 106.331 226.82 106.157Z" fill="#170F1C"/>
<path d="M240.383 105.751C240.441 105.693 240.44 105.694 240.44 105.636C240.44 105.578 240.499 105.636 240.557 105.578C240.614 105.52 240.615 105.462 240.673 105.404C240.962 105.056 241.31 104.708 241.716 104.418C242.006 104.186 242.295 104.013 242.585 103.839C242.991 103.665 243.455 103.607 243.86 103.549H244.266C244.382 103.549 244.498 103.549 244.614 103.607C244.73 103.607 244.904 103.665 245.02 103.665C245.136 103.723 245.251 103.781 245.425 103.839C245.483 103.839 245.541 103.897 245.599 103.897L245.657 103.955H245.715L245.773 104.013L246.121 104.187C246.179 104.244 246.237 104.244 246.295 104.302L246.469 104.418C246.585 104.534 246.7 104.592 246.816 104.708C247.686 105.462 248.439 106.389 248.961 107.374C249.599 108.418 250.062 109.577 250.468 110.736C250.874 112.011 251.164 113.287 251.337 114.62C251.337 114.794 251.395 114.967 251.395 115.141L251.453 115.663C251.511 116.011 251.569 116.301 251.569 116.648C251.569 116.996 251.627 117.286 251.627 117.634C251.627 117.807 251.685 117.981 251.685 118.155V118.677L251.743 119.72V119.836L251.685 120.01V120.706C251.685 121.053 251.627 121.401 251.569 121.749C251.511 122.097 251.511 122.444 251.453 122.792C251.279 123.43 251.105 124.067 250.874 124.705L250.7 125.226C250.642 125.4 250.584 125.516 250.468 125.632C250.352 125.98 250.178 126.27 250.062 126.56C249.483 127.661 248.671 128.704 247.744 129.574C246.874 130.327 245.889 130.907 244.788 131.37C244.672 131.37 244.498 131.428 244.382 131.486C244.266 131.544 244.092 131.544 243.976 131.602C243.744 131.66 243.455 131.718 243.281 131.776C242.817 131.834 242.295 131.834 241.832 131.776C241.078 131.718 240.325 131.486 239.687 131.139C239.281 130.849 238.876 130.559 238.586 130.153C238.412 129.863 238.296 129.748 238.296 129.748C238.18 129.632 238.238 129.458 238.354 129.342C238.354 129.342 238.354 129.342 238.412 129.342C238.528 129.284 238.702 129.284 238.818 129.4V129.458C238.934 129.574 238.992 129.69 239.107 129.806C239.397 130.095 239.745 130.327 240.093 130.501C240.673 130.791 241.252 130.907 241.89 130.907C242.759 130.907 243.571 130.733 244.324 130.327C244.556 130.269 244.73 130.153 244.962 130.037C245.194 129.921 245.367 129.806 245.541 129.632C245.947 129.342 246.353 129.052 246.759 128.704C247.164 128.356 247.512 127.893 247.802 127.429C247.976 127.197 248.149 127.023 248.323 126.792C248.497 126.502 248.613 126.27 248.729 126.038C249.251 124.937 249.599 123.835 249.83 122.676C249.888 122.386 249.946 122.039 249.946 121.749C250.004 121.401 250.004 121.111 250.062 120.821V118.387C250.062 118.271 250.004 118.097 250.004 117.923C250.004 117.576 250.004 117.228 249.946 116.938C249.946 116.59 249.888 116.3 249.888 116.011L249.83 115.489L249.714 115.083C249.598 113.866 249.367 112.591 249.019 111.432C248.729 110.33 248.265 109.229 247.744 108.186C247.28 107.316 246.7 106.505 245.947 105.809C245.889 105.693 245.773 105.636 245.715 105.578L245.599 105.462C245.541 105.462 245.483 105.404 245.425 105.346C245.367 105.288 245.251 105.23 245.135 105.172L245.077 105.114H245.02L244.904 105.056C244.788 104.998 244.73 104.94 244.614 104.94C244.498 104.94 244.44 104.882 244.324 104.824C244.266 104.824 244.15 104.824 244.092 104.766H243.571C243.455 104.766 243.397 104.766 243.281 104.824C243.107 104.824 242.991 104.882 242.875 104.94C242.585 105.056 242.353 105.172 242.122 105.346C241.774 105.578 241.426 105.809 241.136 106.099C241.02 106.215 240.904 106.273 240.846 106.331C240.788 106.389 240.73 106.447 240.73 106.447C240.614 106.563 240.441 106.621 240.267 106.505C240.151 106.389 240.093 106.215 240.209 106.041V105.983L240.383 105.751Z" fill="#170F1C"/>
</svg>
