<svg width="58" height="40" viewBox="0 0 58 40" fill="none" xmlns="http://www.w3.org/2000/svg">
<path d="M48 17.375C48.3661 16.4196 48.5714 15.375 48.5714 14.2857C48.5714 9.55357 44.7321 5.71429 40 5.71429C38.2411 5.71429 36.5982 6.25 35.2411 7.16071C32.7679 2.875 28.1518 0 22.8571 0C14.9643 0 8.57143 6.39286 8.57143 14.2857C8.57143 14.5268 8.58036 14.7679 8.58929 15.0089C3.58929 16.7679 0 21.5357 0 27.1429C0 34.2411 5.75893 40 12.8571 40H45.7143C52.0268 40 57.1429 34.8839 57.1429 28.5714C57.1429 23.0446 53.2143 18.4286 48 17.375ZM35.125 22.8571H29.2857V32.8571C29.2857 33.6429 28.6429 34.2857 27.8571 34.2857H23.5714C22.7857 34.2857 22.1429 33.6429 22.1429 32.8571V22.8571H16.3036C15.0268 22.8571 14.3929 21.3214 15.2946 20.4196L24.7054 11.0089C25.2589 10.4554 26.1696 10.4554 26.7232 11.0089L36.1339 20.4196C37.0357 21.3214 36.3929 22.8571 35.125 22.8571Z" fill="#225DA9"/>
</svg>
